<svg xmlns="http://www.w3.org/2000/svg" width="931" height="938" viewBox="0 0 931 938">
  <g id="Group_25" data-name="Group 25" transform="translate(-931 -75)">
    <circle id="Ellipse_3" data-name="Ellipse 3" cx="465.5" cy="465.5" r="465.5" transform="translate(931 75)" fill="#ffc93c"/>
    <g id="Group_7" data-name="Group 7" transform="translate(1242.149 3.22)">
      <path id="Path_158" data-name="Path 158" d="M418.555,193.765H66.916A10.916,10.916,0,0,0,56,204.681V456.03a10.916,10.916,0,0,0,10.916,10.916H418.555A10.916,10.916,0,0,0,429.47,456.03V204.681A10.916,10.916,0,0,0,418.555,193.765Z" transform="translate(0 -18.167)" fill="#e4ebf7"/>
      <path id="Path_159" data-name="Path 159" d="M319.225,509.486v-187.6a3.735,3.735,0,0,1,3.735-3.735H550.218a3.735,3.735,0,0,1,3.735,3.735V510.22a3.041,3.041,0,0,1-3.078,3H322.96A3.735,3.735,0,0,1,319.225,509.486Z" transform="translate(-155.433 -91.614)" fill="#fff" fill-rule="evenodd"/>
      <path id="Path_160" data-name="Path 160" d="M371.327,494.454a3.04,3.04,0,0,1-3.078-3V369.559a3.04,3.04,0,0,1,3.078-3h189.5a3.04,3.04,0,0,1,3.078,3V491.452a3.041,3.041,0,0,1-3.078,3Z" transform="translate(-184.381 -120.2)" fill="#ff9a3c" fill-rule="evenodd"/>
      <path id="Path_161" data-name="Path 161" d="M411.509,404.324H398.074a1.836,1.836,0,1,1,0-3.67h13.434a1.836,1.836,0,1,1,0,3.67Z" transform="translate(-200.881 -140.333)" fill="#fff" fill-rule="evenodd"/>
      <path id="Path_162" data-name="Path 162" d="M412.04,425.828H398.605a1.836,1.836,0,1,1,0-3.67H412.04a1.836,1.836,0,1,1,0,3.67Z" transform="translate(-201.195 -153.031)" fill="#fff" fill-rule="evenodd"/>
      <path id="Path_163" data-name="Path 163" d="M368.25,499.409c20.362,0,14.955-25.156,45.794-25.156s29.233,22.489,53.285,22.489c24.427,0,22.811-64.592,46.212-64.592,24.7,0,19.126,58.53,49.9,58.53v39.666a3.041,3.041,0,0,1-3.081,3l-189.031-.159a3.04,3.04,0,0,1-3.075-3Z" transform="translate(-184.381 -158.931)" fill="#253368" fill-rule="evenodd"/>
      <path id="Path_164" data-name="Path 164" d="M412.79,449.289c3.638,0,6.573,2.161,9.1,6.262,1.941,3.148,3.6,7.25,5.7,13.66l.283.875c.492,1.56,3.432,10.917,4.53,14.186l.07.206c3.537,10.43,7,17.735,11.528,23.285,5.531,6.776,12.36,10.32,21.119,10.32a27.761,27.761,0,0,0,14.749-4.214l.4-.247A59.717,59.717,0,0,0,491,504.652l1.824-1.832,1.252-1.262c1.059-1.065,1.871-1.869,2.654-2.621l.146-.14c6.262-5.993,11.036-8.756,16.854-8.756,6.1,0,11.429,3.024,18.728,9.564l.508.457c.4.362.816.743,1.265,1.157l3.88,3.62c4.815,4.478,7.765,6.93,11.133,9.041a24.553,24.553,0,0,0,12.922,4.2l.269,0v2.334A26.713,26.713,0,0,1,548,515.857l-.357-.226c-3.436-2.2-6.476-4.75-11.37-9.312l-2.831-2.646c-.905-.842-1.661-1.536-2.38-2.182l-.165-.148c-6.9-6.186-11.808-8.969-17.171-8.969-5,0-9.269,2.434-15.026,7.9l-.214.2c-.669.641-1.353,1.312-2.195,2.155l-3.4,3.417-.512.509a59.358,59.358,0,0,1-11.309,9.3,30.089,30.089,0,0,1-15.955,4.549c-9.493,0-16.971-3.88-22.927-11.178-4.684-5.738-8.217-13.141-11.787-23.591l-.328-.973c-1.278-3.844-4.406-13.816-4.493-14.085l-.262-.8c-4.257-12.954-7.569-18.163-12.535-18.163-3.245,0-5.962,2.166-8.479,6.608l-.116.206c-2.064,3.709-3.794,8.405-6.2,16.348l-2.776,9.32c-.13.435-.242.807-.328,1.088l-.357,1.163c-3.23,10.466-5.975,17.273-9.588,22.784-4.775,7.284-10.669,11.2-18.163,11.275h-.23v-2.334c6.731,0,12.015-3.47,16.441-10.222l.252-.389c3.383-5.285,6.033-11.957,9.178-22.194l.348-1.142,2.687-9.026c2.612-8.709,4.439-13.752,6.7-17.808C405.074,452.058,408.484,449.289,412.79,449.289Z" transform="translate(-183.379 -169.052)" fill="#fff"/>
      <path id="Path_165" data-name="Path 165" d="M561.054,719.024a1.4,1.4,0,0,1,.077,2.8l-.077,0h-189.8a1.4,1.4,0,0,1-.077-2.8l.077,0Z" transform="translate(-185.33 -328.328)" fill="#e4ebf7"/>
      <path id="Path_166" data-name="Path 166" d="M530.721,749.976a1.4,1.4,0,0,1,.077,2.8l-.077,0H371.257a1.4,1.4,0,0,1-.077-2.8l.077,0Z" transform="translate(-185.33 -346.605)" fill="#e4ebf7"/>
      <path id="Path_167" data-name="Path 167" d="M66,163H419.279a9.881,9.881,0,0,1,10,9.754v29.066H56V172.754A9.881,9.881,0,0,1,66,163Z" fill="#253368"/>
      <path id="Path_168" data-name="Path 168" d="M97.92,207.32a6.964,6.964,0,1,0-7.14-6.962A7.052,7.052,0,0,0,97.92,207.32Z" transform="translate(-20.537 -17.949)" fill="#ff7946"/>
      <path id="Path_169" data-name="Path 169" d="M163.043,207.32a6.964,6.964,0,1,0-7.14-6.962A7.052,7.052,0,0,0,163.043,207.32Z" transform="translate(-58.992 -17.949)" fill="#faad14"/>
      <path id="Path_170" data-name="Path 170" d="M228.175,207.32a6.964,6.964,0,1,0-7.14-6.962A7.052,7.052,0,0,0,228.175,207.32Z" transform="translate(-97.452 -17.949)" fill="#7cb305"/>
      <path id="Path_171" data-name="Path 171" d="M352.179,536.366,347.586,533l4.593-3.361L356.772,533Z" transform="translate(-172.179 -216.496)" fill="#fff"/>
      <path id="Path_172" data-name="Path 172" d="M171.385,503.457H123.841A2.947,2.947,0,0,0,120.9,506.4v7.262a2.947,2.947,0,0,0,2.946,2.946h47.544a2.947,2.947,0,0,0,2.946-2.946V506.4A2.947,2.947,0,0,0,171.385,503.457Z" transform="translate(-38.32 -201.037)" fill="#a3b5d6"/>
      <path id="Path_173" data-name="Path 173" d="M171.43,565.3H123.8a2.9,2.9,0,0,0-2.9,2.9v6.953a2.9,2.9,0,0,0,2.9,2.9H171.43a2.9,2.9,0,0,0,2.9-2.9v-6.953A2.9,2.9,0,0,0,171.43,565.3Z" transform="translate(-38.32 -237.558)" fill="#a3b5d6"/>
      <path id="Path_174" data-name="Path 174" d="M171.43,625.89H123.8a2.9,2.9,0,0,0-2.9,2.9v6.953a2.9,2.9,0,0,0,2.9,2.9H171.43a2.9,2.9,0,0,0,2.9-2.9v-6.953A2.9,2.9,0,0,0,171.43,625.89Z" transform="translate(-38.32 -273.333)" fill="#a3b5d6"/>
      <path id="Path_175" data-name="Path 175" d="M147.674,375.988c14.733,0,26.676-11.645,26.676-26.009s-11.944-26.01-26.676-26.01S121,335.614,121,349.979,132.941,375.988,147.674,375.988Z" transform="translate(-38.38 -95.051)" fill="#fff"/>
      <path id="Path_176" data-name="Path 176" d="M157.387,421.038a26.293,26.293,0,0,0,19.932-9.047,22.806,22.806,0,0,0-39.873,0A26.3,26.3,0,0,0,157.387,421.038Z" transform="translate(-48.093 -140.1)" fill="#253368"/>
      <path id="Path_177" data-name="Path 177" d="M172.019,374.576a9.785,9.785,0,1,0-10.033-9.782A9.91,9.91,0,0,0,172.019,374.576Z" transform="translate(-62.584 -113.382)" fill="#253368"/>
    </g>
    <g id="Group_8" data-name="Group 8">
      <path id="Path_2" data-name="Path 2" d="M226.74,269.763s-51.094,5.8-52.906,34.807c-.933,14.922,12.8,31.882,5.515,36.08-28.459,16.4-1.532,28.294-22.526,36.688-29.592,11.831-19.514,58.783,8.093,57.791,28.593-1.029,24.925,39,74.534,29.97,27.962-5.087,22.034-21.968,42.143-30.738s49.054-48.173,26.21-74.588c-14.185-16.7-28.6-15.877-35.586-42.819s-14.177-43.606-27.421-42.1C240.358,267.754,226.74,269.763,226.74,269.763Z" transform="translate(1029.086 -33.822)" fill="#253368" fill-rule="evenodd"/>
      <path id="Path_3" data-name="Path 3" d="M234.735,315.976a.575.575,0,0,0-1.1-.1c-1.879,4.736-6.463,17.543-1.391,18.436C237.964,335.319,235.731,321.146,234.735,315.976Z" transform="translate(988.27 -18.689)" fill="#fff" fill-rule="evenodd"/>
      <path id="Path_4" data-name="Path 4" d="M229.91,358.324c-.726-23.247.246-32.282.246-32.282l-29.449,6.516-2.792,24.479a16.054,16.054,0,1,0,32,1.288Z" transform="translate(1036.811 -15.225)" fill="#f4b784" fill-rule="evenodd"/>
      <path id="Path_5" data-name="Path 5" d="M229.885,295.359s-2.7-9.267-9.211-5.386c-4.655,2.775-3.28.306-4.082-2.2-2.986-9.3-6.441,11.693-21.1,15.221-1.124,11.283-4.086,48.47,20.225,51.787,9.457,1.289,21.393-3.69,27.352-17.074,3.6-8.086,1.774-16.81-1.426-18.754C231.1,312.548,231.753,306.843,229.885,295.359Z" transform="translate(1025.987 -28.587)" fill="#ffc999" fill-rule="evenodd"/>
      <path id="Path_6" data-name="Path 6" d="M219.595,299.251a.764.764,0,0,0-.606.783l.016.124,1.225,5.8-.122,1.021c-.121.938-.279,2.037-.48,3.286l-.28,1.682c-.544,3.147-1.249,6.63-2.14,10.4a.765.765,0,0,0,.423.869l1.617.758,2.859,1.363,2.684,1.3a.765.765,0,1,0,.671-1.374l-1.721-.835c-.971-.47-1.95-.94-2.9-1.391l-2-.945.1-.424c.864-3.749,1.544-7.205,2.064-10.322l.137-.841.163-1.047q.153-1.009.267-1.867l.154-1.228.041-.369-.013-.234-1.249-5.924a.767.767,0,0,0-.783-.606Z" transform="translate(1015.324 -24.042)" fill="#dd936f"/>
      <path id="Path_7" data-name="Path 7" d="M224.436,304.9a1,1,0,0,0-1.146.821l-.027.189c-.011.077-.021.169-.031.275a10.281,10.281,0,0,0,.148,3.132c.536,2.476,2.121,4.06,4.87,4.008,2.125-.041,3.451-1.413,4.089-3.5a10.147,10.147,0,0,0,.425-2.74v-.385a1,1,0,0,0-1.987-.068l-.005.136v.28a8.264,8.264,0,0,1-.338,2.194c-.413,1.354-1.108,2.073-2.222,2.094a2.63,2.63,0,0,1-2.882-2.436,8.31,8.31,0,0,1-.113-2.518l.04-.331A1,1,0,0,0,224.436,304.9Z" transform="translate(1000.489 -22.184)" fill="#253368"/>
      <path id="Path_8" data-name="Path 8" d="M207.379,306.05a1,1,0,0,0-1.12.856l-.024.227-.009.106a9.917,9.917,0,0,0,.251,3.185,4.712,4.712,0,0,0,4.977,3.884c2.117-.04,3.454-1.39,4.114-3.454a9.949,9.949,0,0,0,.457-2.769v-.319a1,1,0,0,0-1.987-.088l-.005.134a8.05,8.05,0,0,1-.363,2.435c-.428,1.336-1.132,2.047-2.254,2.068a2.76,2.76,0,0,1-3.009-2.389,7.963,7.963,0,0,1-.194-2.534l.021-.223A1,1,0,0,0,207.379,306.05Z" transform="translate(1039.8 -21.803)" fill="#253368"/>
      <path id="Path_9" data-name="Path 9" d="M225.923,321.851a1,1,0,0,0-1.224-.7,28.93,28.93,0,0,1-11.376.845l-.419-.058c-.383-.058-.655-.113-.809-.149a1,1,0,1,0-.464,1.939l.243.052c.28.057.679.126,1.185.193a30.9,30.9,0,0,0,12.165-.9A1,1,0,0,0,225.923,321.851Z" transform="translate(1023.656 -16.844)" fill="#c44343"/>
      <path id="Path_10" data-name="Path 10" d="M221.935,298.322a1,1,0,0,0,.781,1.173l1.118.217.7.132c1.391.262,2.852.524,4.308.767l1.669.271.805.125c1.082.165,2.09.3,3.011.416a1,1,0,1,0,.242-1.979c-.72-.088-1.5-.193-2.326-.314l-.629-.094q-.785-.12-1.611-.254l-.833-.137c-1.083-.182-2.168-.372-3.224-.566l-1.4-.26-1.438-.278A1,1,0,0,0,221.935,298.322Z" transform="translate(999.49 -24.606)" fill="#253368"/>
      <path id="Path_11" data-name="Path 11" d="M219,299.058c-3.47.431-6.961.712-10.3.872l-1.673.07q-.53.02-1.022.032l-1.421.029h-.222a1,1,0,1,0,.007,1.993l.749-.009,1.45-.036c.692-.023,1.437-.052,2.227-.089,3.386-.163,6.926-.448,10.449-.885a1,1,0,0,0-.11-1.987Z" transform="translate(1039.457 -24.103)" fill="#253368"/>
      <path id="Path_12" data-name="Path 12" d="M216.541,325.9a.764.764,0,0,0-.2,1.511l.124.016,2.662.125a.764.764,0,0,0,.2-1.511l-.124-.016Z" transform="translate(1023.207 -15.272)" fill="#dd936f"/>
      <path id="Path_13" data-name="Path 13" d="M194.964,318.078c2.617-9.43-6.6-9.409-6.6-9.409a79.423,79.423,0,0,1-3.773,17.873C193.811,326.823,194.964,318.078,194.964,318.078Z" transform="translate(1089.099 -20.939)" fill="#ffc999" fill-rule="evenodd"/>
      <path id="Path_14" data-name="Path 14" d="M193,320.667a.575.575,0,0,0-1.1-.1c-1.879,4.736-6.463,17.544-1.391,18.437C196.226,340.008,193.993,325.835,193,320.667Z" transform="translate(1085.475 -17.146)" fill="#fff" fill-rule="evenodd"/>
      <path id="Path_15" data-name="Path 15" d="M234.662,485.327s-3.6-71.933-2.985-85.411c1.494-32.549,19.913-38.657,33.966-26.488,16.94,14.667,3.508,116.265,3.508,116.265s-2.682,11.455-17.661,12.811C233.782,504.1,234.662,485.327,234.662,485.327Z" transform="translate(947.852 -1.548)" fill="#ffc999" fill-rule="evenodd"/>
      <path id="Path_16" data-name="Path 16" d="M232.573,433.268c-.029-6.754-8.481-65.314,20.267-66.207,21.94-.682,24.387,18.912,21.385,67.4Z" transform="translate(947.072 -1.738)" fill="#ffc93c" fill-rule="evenodd"/>
      <path id="Path_17" data-name="Path 17" d="M351.392,462.287s19.816,9.015,31.293,6.682c9.385-1.908,3.838-11.366,3.838-11.366s-10.4-15.178-18.674-22.153c-5.425-4.573-14.439-14.8-17.525-12.654-4.023,2.8,6.9,11.753,5.857,15.164-2.114,6.91-20.783-5.366-24.877-5.732C323.3,431.513,327.611,449.515,351.392,462.287Z" transform="translate(706.311 16.503)" fill="#ffc999" fill-rule="evenodd"/>
      <path id="Path_18" data-name="Path 18" d="M358.1,432.082a.765.765,0,1,0-1.038,1.123,37.739,37.739,0,0,0,5.712,4.3,52.272,52.272,0,0,0,9.205,4.476c.877.33,1.706.615,2.472.859l.562.175c.553.167.952.278,1.169.332a.765.765,0,0,0,.372-1.483l-.505-.137c-.167-.049-.365-.106-.593-.175-.886-.27-1.876-.6-2.942-1a50.692,50.692,0,0,1-8.934-4.344A36.134,36.134,0,0,1,358.1,432.082Z" transform="translate(678.515 19.587)" fill="#dd936f"/>
      <path id="Path_19" data-name="Path 19" d="M358.332,436.311a.764.764,0,0,0-1.086,1.075l.336.322c.113.1.247.226.4.364.6.529,1.318,1.116,2.156,1.749a55.874,55.874,0,0,0,8.57,5.269,66.788,66.788,0,0,0,7.352,3.148.764.764,0,0,0,.518-1.438,65.195,65.195,0,0,1-7.184-3.078,54.243,54.243,0,0,1-8.335-5.122c-.671-.508-1.26-.983-1.769-1.419l-.557-.49C358.542,436.516,358.408,436.387,358.332,436.311Z" transform="translate(678.297 20.97)" fill="#dd936f"/>
      <path id="Path_20" data-name="Path 20" d="M357.071,442.947a.764.764,0,1,0-.862,1.263,72.93,72.93,0,0,0,10.4,6.016c.93.431,1.769.784,2.508,1.068l.363.137c.5.186.851.3,1.038.354a.764.764,0,1,0,.421-1.47l-.416-.134c-.094-.033-.2-.07-.323-.114l-.19-.069c-.788-.291-1.71-.674-2.76-1.159A71.446,71.446,0,0,1,357.071,442.947Z" transform="translate(685.416 23.184)" fill="#dd936f"/>
      <path id="Path_21" data-name="Path 21" d="M239.145,442.3s102.385,1.067,115.58,3.883c32.717,6.985,26.382,38.176,2.942,38.77-31.184.789-121.241-23.45-121.241-23.45Z" transform="translate(838.375 23.015)" fill="#ffc999" fill-rule="evenodd"/>
      <path id="Path_22" data-name="Path 22" d="M196.3,691.432c-.178-.443,48.826,121.68,52.908,129.138,11.143,20.352,15.011,21.863,7.116,33.215-2.024,2.909-7.079,3.652-8.766,11.026-4.621,20.177-18.033,37.523-24.535,30.951-5.439-6.508,10.233-45.367,4.8-62.01-5.649-17.287-86.893-140.16-89.112-155.91C135.45,654.71,145.641,607.947,196.3,691.432Z" transform="translate(1085.755 89.276)" fill="#ffc999" fill-rule="evenodd"/>
      <path id="Path_23" data-name="Path 23" d="M181.116,807.133a65.713,65.713,0,0,0-12.223-25.271s-4.567,13.394-7.523,26.941c-3.415,15.641-5.361,17.41-5.361,17.41-9.625,9.992-15.9,4.788-15.9,4.788s-1.85,11.623-8.958,26.956c-6.367,13.73,36.031-7.5,35.945-21.114a69.24,69.24,0,0,1,4.033-23.857l11.994,14.1,3.894-2.287Z" transform="translate(1169.4 134.704)" fill="#253368" fill-rule="evenodd"/>
      <path id="Path_24" data-name="Path 24" d="M219.355,644.234,282.421,809.7l-69.84,30.79S180.189,755.245,149.83,667.5c0,0-17.625-42.965,18.275-56.325S219.355,644.234,219.355,644.234Z" transform="translate(1054.057 77.766)" fill="#a3b5d6" fill-rule="evenodd"/>
      <path id="Path_25" data-name="Path 25" d="M212.332,661.252c-15.889-82.616-11.934-149.667-6.392-167.869,0,0,13.164-26.325,41.642-12.239,33.2,16.428,33.206,45.2,33.206,45.2l9.609,129.9c.415,10.643,2.578,43.607-38.273,47.672C211.913,707.925,212.663,662.971,212.332,661.252Z" transform="translate(972.08 34.428)" fill="#a3b5d6" fill-rule="evenodd"/>
      <path id="Path_26" data-name="Path 26" d="M248.368,489.8c-15.7,3.827-55.2,1.249-59.868-.748s-.375-10.851-.375-10.851-17.315-36.254-17.98-46.248,8.243-32.583,8.243-32.583-2.323-19.56,3-22.2c6.65-3.292,24.242-10.137,29.4-12.8s6.027-15.6,6.027-15.6l34.892-2.161s1.942,9.9,4,13.324c3.995,6.661,15.644-3.09,25.66,6.514,21.727,20.828-15.9,79.1-29.462,109.2C251.909,475.645,256.669,482.96,248.368,489.8Z" transform="translate(1015.795 -8.46)" fill="#ffc93c" fill-rule="evenodd"/>
      <path id="Path_27" data-name="Path 27" d="M231.136,359.1l-33.305,4.019a1,1,0,0,0,.1,1.985l.134-.007,33.305-4.019a1,1,0,0,0-.1-1.987Z" transform="translate(1035.855 -4.355)" fill="#155263"/>
      <path id="Path_28" data-name="Path 28" d="M217.235,363.548a1,1,0,0,0-1.082-.739l-.134.025-17.61,4.593a1,1,0,0,0,.371,1.955l.133-.025,17.61-4.593A1,1,0,0,0,217.235,363.548Z" transform="translate(1049.893 -3.134)" fill="#155263"/>
      <path id="Path_29" data-name="Path 29" d="M267.552,401.213a1,1,0,0,0-1.409-.056l-.27.231c-.2.158-.464.364-.807.607a23.259,23.259,0,0,1-3.313,1.936c-5.9,2.856-13.114,3.817-21.559,1.761l-.688-.173c-2.994-.781-9.976-.775-19.9-.2-2.455.144-5.025.319-7.668.52l-1.6.125c-2.5.2-4.933.407-7.239.619l-3.177.3-1.355.136a1,1,0,0,0,.2,1.983l3.373-.328,3.476-.316c1.584-.138,3.216-.275,4.876-.407l3.159-.241q2.342-.171,4.585-.311l2.78-.163c8.771-.478,15.093-.466,17.788.161l.191.047c9.22,2.405,17.147,1.41,23.619-1.721a25.212,25.212,0,0,0,3.6-2.106l.429-.311c.392-.294.675-.529.848-.688A1,1,0,0,0,267.552,401.213Z" transform="translate(999.327 9.395)" fill="#155263"/>
      <path id="Path_30" data-name="Path 30" d="M261.365,375.263a1,1,0,0,0-1.075.748l-.024.134-1.239,11.279-.308.781c-.226.582-.474,1.228-.738,1.931l-.2.537c-.971,2.606-1.943,5.37-2.849,8.172-.731,2.257-1.389,4.445-1.956,6.533-1.48,5.443-2.278,9.93-2.211,13.172a38.787,38.787,0,0,0,1.595,9.29c.659,2.376,1.5,4.882,2.466,7.463.882,2.347,1.827,4.626,2.773,6.75l.569,1.258.5,1.063c.089.189.157.33.2.417a1,1,0,1,0,1.79-.877l-.336-.706c-.217-.461-.453-.975-.706-1.538l-.193-.429c-.93-2.09-1.86-4.334-2.728-6.641-.952-2.529-1.77-4.981-2.412-7.3a36.954,36.954,0,0,1-1.523-8.8c-.061-3.007.708-7.334,2.142-12.607.56-2.056,1.208-4.214,1.93-6.443.747-2.31,1.54-4.6,2.34-6.787l.48-1.3c.27-.723.524-1.391.757-2l.522-1.332.065-.263,1.255-11.414A1,1,0,0,0,261.365,375.263Z" transform="translate(934.346 0.963)" fill="#155263"/>
      <path id="Path_31" data-name="Path 31" d="M176.911,519.3s3.963-43.671,23.974-58.536l69.42.477S303.38,484.5,295.9,538.383l-60.427,14.51L216.2,559.336S185.515,539.881,176.911,519.3Z" transform="translate(997.741 29.088)" fill="#e4ebf7" fill-rule="evenodd"/>
      <path id="Path_32" data-name="Path 32" d="M267.55,464.621l-71.638-.109,5.987-11.225,64.542.522Z" transform="translate(1001.939 26.629)" fill="#e4ebf7" fill-rule="evenodd"/>
      <path id="Path_33" data-name="Path 33" d="M238.617,462.487a.747.747,0,0,0-.892.569,231.122,231.122,0,0,0-4.573,65.8l.1,1.264q.12,1.531.247,2.821l.15,1.444.081.687a.748.748,0,1,0,1.483-.19l-.109-.949-.068-.639c-.133-1.306-.266-2.827-.389-4.546a229.682,229.682,0,0,1,4.541-65.371A.748.748,0,0,0,238.617,462.487Z" transform="translate(981.61 29.649)" fill="#a3b5d6"/>
      <path id="Path_34" data-name="Path 34" d="M196.279,461.171a.748.748,0,0,0-.134,1.484l.122.011,71.032.619a.748.748,0,0,0,.134-1.484l-.122-.011Z" transform="translate(1001.951 29.222)" fill="#a3b5d6"/>
      <path id="Path_35" data-name="Path 35" d="M323.391,715.738c.117-.5-32.024,137.184-33.026,146.266-2.738,24.779-.263,28.493-14.213,33.618-3.572,1.314-8.479-1.148-14.508,4.3-16.5,14.912-39,21.911-40.669,12.121-.777-9.083,36.967-33.624,42.439-51.621,5.685-18.7,9.912-176.914,17.667-192.143C292.471,645.914,330.262,611.039,323.391,715.738Z" transform="translate(911.978 89.437)" fill="#ffc999" fill-rule="evenodd"/>
      <path id="Path_36" data-name="Path 36" d="M325.035,843.875a70.583,70.583,0,0,0,4.816-29.774s-12.274,8.974-23.226,19.073c-12.646,11.663-15.449,12.02-15.449,12.02-14.629,2.862-16.941-5.586-16.941-5.586s-8.793,9.09-24.5,18.2c-14.065,8.161,36.335,15.6,44.65,3.572a74.356,74.356,0,0,1,18.253-18.51l1.866,19.8,4.836.387Z" transform="translate(871.277 145.308)" fill="#253368" fill-rule="evenodd"/>
      <path id="Path_37" data-name="Path 37" d="M317.2,655.694,288.225,843.739l-81.588-8.332S221.658,738.583,239.9,640.5c0,0,6.358-49.489,46.984-42.9S317.2,655.694,317.2,655.694Z" transform="translate(936.868 73.896)" fill="#e4ebf7" fill-rule="evenodd"/>
      <path id="Path_38" data-name="Path 38" d="M182.26,646.51c20.2-77.843,33.145-137.587,44.244-153.04,0,0,26.951-21.907,47.145-9.542,27.5,16.837,16.091,52.571,16.091,52.571L251.2,687.664c-3.03,10.211-10.522,36.221-50.512,26.94C161.322,705.469,181.82,648.207,182.26,646.51Z" transform="translate(1003.151 35.463)" fill="#e4ebf7" fill-rule="evenodd"/>
      <path id="Path_39" data-name="Path 39" d="M173.891,476.016s-23.568-68.059-26.742-81.17c-7.664-31.668,8.315-42.682,25.208-34.928,20.364,9.349,35.868,110.651,35.868,110.651s.627,11.749-13.376,17.236C178.3,494.291,173.891,476.016,173.891,476.016Z" transform="translate(1128.684 -4.867)" fill="#ffc999" fill-rule="evenodd"/>
      <path id="Path_40" data-name="Path 40" d="M165.644,427.02c-1.918-6.474-26.4-60.34.952-69.233,20.876-6.787,28.7,11.341,39.373,58.737Z" transform="translate(1119.572 -5.236)" fill="#ffc93c" fill-rule="evenodd"/>
      <path id="Path_41" data-name="Path 41" d="M154.917,392.178a1,1,0,0,0-1.911.554l.039.129,8.376,22.952a1,1,0,0,0,1.051.649l.136-.025,40.325-10.495a1,1,0,0,0-.369-1.955l-.133.025-39.448,10.266Z" transform="translate(1122.859 6.313)" fill="#155263"/>
      <path id="Path_42" data-name="Path 42" d="M286.311,489.9l132.658-6.039a7.5,7.5,0,0,0,6.714-10.028l-33.089-91.911a7.5,7.5,0,0,0-7.4-4.952L252.541,383a7.5,7.5,0,0,0-6.714,10.029l33.087,91.912A7.5,7.5,0,0,0,286.311,489.9Z" transform="translate(777.621 1.523)" fill="#253368" fill-rule="evenodd"/>
      <path id="Path_43" data-name="Path 43" d="M265.706,478.817s21.547,3.116,31.917-2.332c8.476-4.455.506-11.986.506-11.986S283.9,452.834,274.007,448.45c-6.486-2.874-18-10.174-20.362-7.249-3.08,3.813,9.908,9.354,9.861,12.921-.1,7.225-21.454.655-25.487,1.451C230.132,457.124,239.3,473.2,265.706,478.817Z" transform="translate(915.638 22.43)" fill="#ffc999" fill-rule="evenodd"/>
      <path id="Path_44" data-name="Path 44" d="M268.294,454.2a.765.765,0,0,0-.682,1.369,35.455,35.455,0,0,0,4.12,1.728,48.711,48.711,0,0,0,10.863,2.365,50.057,50.057,0,0,0,5.652.31l.561-.009a.765.765,0,0,0-.057-1.528l-.175,0-.708.007a50.284,50.284,0,0,1-5.11-.3,47.322,47.322,0,0,1-10.521-2.29A33.989,33.989,0,0,1,268.294,454.2Z" transform="translate(885.226 26.903)" fill="#dd936f"/>
      <path id="Path_45" data-name="Path 45" d="M267.2,458.257a.764.764,0,1,0-.743,1.336l.338.177.128.064c.371.183.809.387,1.313.606a46.321,46.321,0,0,0,5.034,1.818,63.247,63.247,0,0,0,14.289,2.5.764.764,0,1,0,.1-1.526,61.72,61.72,0,0,1-13.943-2.433,44.823,44.823,0,0,1-4.867-1.758c-.36-.155-.684-.3-.97-.44l-.484-.239C267.3,458.311,267.233,458.277,267.2,458.257Z" transform="translate(887.904 28.232)" fill="#dd936f"/>
      <path id="Path_46" data-name="Path 46" d="M264.749,463.4a.765.765,0,0,0-.474,1.454,73.157,73.157,0,0,0,11.611,2.86l.784.113a31,31,0,0,0,3.116.295l.344.005a.765.765,0,0,0,.121-1.52l-.125-.009-.316-.007c-.182-.008-.419-.021-.708-.041-.844-.062-1.841-.173-2.986-.348A71.619,71.619,0,0,1,264.749,463.4Z" transform="translate(898.448 29.944)" fill="#dd936f"/>
      <path id="Path_47" data-name="Path 47" d="M145.236,462.542s98.6-27.6,112.059-28.581c33.365-2.44,36,29.281,13.663,36.4C241.236,479.839,148,481.737,148,481.737Z" transform="translate(1051.368 20.228)" fill="#ffc999" fill-rule="evenodd"/>
    </g>
    <g id="Group_1" data-name="Group 1" transform="translate(1149.405 711.567)">
      <path id="Path_48" data-name="Path 48" d="M517.115,66.4c31.85-15.065,50.832,24.445,34.814,46.443-19.547,26.845-29.56,57.734-35.136,67.04-4.7,7.851-17.588,26.991-33.1,18.169-14.279-8.119-6.5-39.984-6.5-39.984S477.824,84.987,517.115,66.4Z" transform="translate(-176.199)" fill="#5b8c00" fill-rule="evenodd"/>
      <path id="Path_49" data-name="Path 49" d="M245.118,431.276c-10.828-14.608-14.781-35.572-2.7-40.948,11.587-5.154,30.782,7.536,39.672,31.959s14.02,41.982,5.323,45.036C273.15,472.332,259.42,450.57,245.118,431.276Z" transform="translate(-0.001 -239.357)" fill="#5b8c00" fill-rule="evenodd"/>
      <path id="Path_50" data-name="Path 50" d="M581.845,488.831c-12.247,14.352-29.919,43.222-40.991,33.111-6.71-6.128,2.26-35.148,26.815-50.938C588.556,457.573,594.092,474.479,581.845,488.831Z" transform="translate(-222.894 -295.803)" fill="#7cb305" fill-rule="evenodd"/>
      <path id="Path_51" data-name="Path 51" d="M241.76,168.821a18.364,18.364,0,0,1,15.862-2.137c7.461,2.39,18.782,9.5,29.987,29.927,14.629,26.663,22.245,55.893,20.739,74.409a14.077,14.077,0,0,1-24.247,8.5c-3.832-4.055-7.888-10.3-11.855-19.787-15.967-38.157-30.9-62.068-32.676-64.469C234.821,188.857,231.424,175.775,241.76,168.821Z" transform="translate(0 -75.387)" fill="#7cb305" fill-rule="evenodd"/>
      <path id="Path_52" data-name="Path 52" d="M281.807,225.761a3.423,3.423,0,1,1-3.7-3.125A3.423,3.423,0,0,1,281.807,225.761Z" transform="translate(-29.337 -117.108)" fill="#fff" fill-rule="evenodd"/>
      <path id="Path_53" data-name="Path 53" d="M391.086,280.692a3.423,3.423,0,1,1-3.7-3.125A3.423,3.423,0,0,1,391.086,280.692Z" transform="translate(-109.54 -157.422)" fill="#fff" fill-rule="evenodd"/>
      <path id="Path_54" data-name="Path 54" d="M370.034,425.69a3.92,3.92,0,1,1-4.234-3.579A3.92,3.92,0,0,1,370.034,425.69Z" transform="translate(-93.362 -263.507)" fill="#fff" fill-rule="evenodd"/>
      <path id="Path_55" data-name="Path 55" d="M696.691,201.736a5.544,5.544,0,1,1-5.544-5.544A5.544,5.544,0,0,1,696.691,201.736Z" transform="translate(-330.711 -97.708)" fill="#fff" fill-rule="evenodd"/>
      <path id="Path_56" data-name="Path 56" d="M528.951,265.365a5.544,5.544,0,1,1-5.544-5.544A5.544,5.544,0,0,1,528.951,265.365Z" transform="translate(-207.602 -144.407)" fill="#fff" fill-rule="evenodd"/>
      <path id="Path_57" data-name="Path 57" d="M601.078,415.705a2.317,2.317,0,1,1-2.317-2.317A2.317,2.317,0,0,1,601.078,415.705Z" transform="translate(-265.275 -257.115)" fill="#fff" fill-rule="evenodd"/>
      <path id="Path_58" data-name="Path 58" d="M657.72,524.033a3.423,3.423,0,1,1-3.423-3.423A3.423,3.423,0,0,1,657.72,524.033Z" transform="translate(-305.222 -335.808)" fill="#fff" fill-rule="evenodd"/>
      <path id="Path_59" data-name="Path 59" d="M375.417,561.4a.8.8,0,0,1,1.129.027l.146.158.111.123q.3.337.695.8c.742.885,1.567,1.942,2.454,3.17a84.586,84.586,0,0,1,7.41,12.523c6.724,13.829,10.756,30.255,10.756,49.217a.8.8,0,1,1-1.6,0c0-18.712-3.974-34.9-10.6-48.519a83.009,83.009,0,0,0-7.269-12.287c-.813-1.127-1.571-2.1-2.256-2.927l-.127-.153q-.291-.348-.529-.617l-.2-.224c-.074-.082-.126-.138-.154-.167A.8.8,0,0,1,375.417,561.4Z" transform="translate(-102.875 -365.586)" fill="#253368"/>
      <path id="Path_60" data-name="Path 60" d="M536.83,582.126a.8.8,0,1,1,1.279.955,111.276,111.276,0,0,0-8.057,12.518,147.449,147.449,0,0,0-12.241,29.5c-1.048,3.52-1.89,6.789-2.546,9.72l-.133.6c-.156.717-.292,1.371-.407,1.957l-.074.383-.133.724a.8.8,0,1,1-1.574-.265l.046-.257q.056-.311.138-.731l.132-.665q.193-.95.448-2.1l.145-.641c.641-2.8,1.446-5.883,2.429-9.186a149.022,149.022,0,0,1,12.376-29.818A112.884,112.884,0,0,1,536.83,582.126Z" transform="translate(-203.983 -380.721)" fill="#253368"/>
      <path id="Path_61" data-name="Path 61" d="M546.1,208.111a.8.8,0,0,1,.059,1.089l-.035.039-.1.107-.2.214-.114.127c-.344.383-.743.844-1.194,1.383-1.293,1.546-2.735,3.407-4.289,5.583a146.912,146.912,0,0,0-13.055,22.51A194.779,194.779,0,0,0,511.6,289.207c-3.966,22.764-4.623,47.631-1.376,74.62a.8.8,0,0,1-1.585.191c-3.265-27.144-2.6-52.168,1.389-75.085a196.374,196.374,0,0,1,15.705-50.452,148.485,148.485,0,0,1,13.2-22.755l.349-.486c1.388-1.922,2.686-3.594,3.867-5.017l.147-.176q.636-.761,1.14-1.325l.09-.1q.157-.175.28-.309l.166-.178A.8.8,0,0,1,546.1,208.111Z" transform="translate(-199.302 -106.293)" fill="#253368"/>
      <path id="Path_62" data-name="Path 62" d="M394.438,386.308a.8.8,0,0,1,1.1.269l.08.134c.064.108.139.237.225.386l.125.219q.321.564.72,1.3l.22.406c.812,1.511,1.7,3.26,2.651,5.241l.13.271a201.644,201.644,0,0,1,9.085,22.709,261.907,261.907,0,0,1,13.2,81.748.8.8,0,0,1-1.6.01,260.31,260.31,0,0,0-13.115-81.251,200.691,200.691,0,0,0-8.845-22.177l-.167-.352c-1.031-2.159-1.99-4.044-2.855-5.646l-.26-.479q-.375-.684-.673-1.2l-.094-.163-.192-.326A.8.8,0,0,1,394.438,386.308Z" transform="translate(-116.734 -237.155)" fill="#253368"/>
      <path id="Path_63" data-name="Path 63" d="M417.363,782.7h-69a6.8,6.8,0,0,1-6.781-6.781V725.582a6.8,6.8,0,0,1,6.781-6.781h69a6.8,6.8,0,0,1,6.781,6.781v50.336A6.8,6.8,0,0,1,417.363,782.7Z" transform="translate(-78.226 -481.266)" fill="#253368" fill-rule="evenodd"/>
    </g>
  </g>
</svg>
