
<svg xmlns="http://www.w3.org/2000/svg" width="146.527" height="238.372" viewBox="0 0 146.527 238.372">
  <g id="Group_17" data-name="Group 17" transform="translate(-1251.473 -792.628)">
    <path id="Path_48" data-name="Path 48" d="M517.115,66.4c31.85-15.065,50.832,24.445,34.814,46.443-19.547,26.845-29.56,57.734-35.136,67.04-4.7,7.851-17.588,26.991-33.1,18.169-14.279-8.119-6.5-39.984-6.5-39.984S477.824,84.987,517.115,66.4Z" transform="translate(840.274 729.567)" fill="#5b8c00" fill-rule="evenodd"/>
    <path id="Path_49" data-name="Path 49" d="M245.118,431.276c-10.828-14.608-14.781-35.572-2.7-40.948,11.587-5.154,30.782,7.536,39.672,31.959s14.02,41.982,5.323,45.036C273.15,472.332,259.42,450.57,245.118,431.276Z" transform="translate(1016.473 490.21)" fill="#5b8c00" fill-rule="evenodd"/>
    <path id="Path_50" data-name="Path 50" d="M581.845,488.831c-12.247,14.352-29.919,43.222-40.991,33.111-6.71-6.128,2.26-35.148,26.815-50.938C588.556,457.573,594.092,474.479,581.845,488.831Z" transform="translate(793.579 433.764)" fill="#7cb305" fill-rule="evenodd"/>
    <path id="Path_51" data-name="Path 51" d="M241.76,168.821a18.364,18.364,0,0,1,15.862-2.137c7.461,2.39,18.782,9.5,29.987,29.927,14.629,26.663,22.245,55.893,20.739,74.409a14.077,14.077,0,0,1-24.247,8.5c-3.832-4.055-7.888-10.3-11.855-19.787-15.967-38.157-30.9-62.068-32.676-64.469C234.821,188.857,231.424,175.775,241.76,168.821Z" transform="translate(1016.474 654.18)" fill="#7cb305" fill-rule="evenodd"/>
    <path id="Path_52" data-name="Path 52" d="M281.807,225.761a3.423,3.423,0,1,1-3.7-3.125A3.423,3.423,0,0,1,281.807,225.761Z" transform="translate(987.136 612.459)" fill="#fff" fill-rule="evenodd"/>
    <path id="Path_53" data-name="Path 53" d="M391.086,280.692a3.423,3.423,0,1,1-3.7-3.125A3.423,3.423,0,0,1,391.086,280.692Z" transform="translate(906.933 572.144)" fill="#fff" fill-rule="evenodd"/>
    <path id="Path_54" data-name="Path 54" d="M370.034,425.69a3.92,3.92,0,1,1-4.234-3.579A3.92,3.92,0,0,1,370.034,425.69Z" transform="translate(923.112 466.06)" fill="#fff" fill-rule="evenodd"/>
    <path id="Path_55" data-name="Path 55" d="M696.691,201.736a5.544,5.544,0,1,1-5.544-5.544A5.544,5.544,0,0,1,696.691,201.736Z" transform="translate(685.763 631.858)" fill="#fff" fill-rule="evenodd"/>
    <path id="Path_56" data-name="Path 56" d="M528.951,265.365a5.544,5.544,0,1,1-5.544-5.544A5.544,5.544,0,0,1,528.951,265.365Z" transform="translate(808.872 585.159)" fill="#fff" fill-rule="evenodd"/>
    <path id="Path_57" data-name="Path 57" d="M601.078,415.705a2.317,2.317,0,1,1-2.317-2.317A2.317,2.317,0,0,1,601.078,415.705Z" transform="translate(751.199 472.452)" fill="#fff" fill-rule="evenodd"/>
    <path id="Path_58" data-name="Path 58" d="M657.72,524.033a3.423,3.423,0,1,1-3.423-3.423A3.423,3.423,0,0,1,657.72,524.033Z" transform="translate(711.251 393.759)" fill="#fff" fill-rule="evenodd"/>
    <path id="Path_59" data-name="Path 59" d="M375.417,561.4a.8.8,0,0,1,1.129.027l.146.158.111.123q.3.337.695.8c.742.885,1.567,1.942,2.454,3.17a84.586,84.586,0,0,1,7.41,12.523c6.724,13.829,10.756,30.255,10.756,49.217a.8.8,0,1,1-1.6,0c0-18.712-3.974-34.9-10.6-48.519a83.009,83.009,0,0,0-7.269-12.287c-.813-1.127-1.571-2.1-2.256-2.927l-.127-.153q-.291-.348-.529-.617l-.2-.224c-.074-.082-.126-.138-.154-.167A.8.8,0,0,1,375.417,561.4Z" transform="translate(913.599 363.981)" fill="#253368"/>
    <path id="Path_60" data-name="Path 60" d="M536.83,582.126a.8.8,0,1,1,1.279.955,111.276,111.276,0,0,0-8.057,12.518,147.449,147.449,0,0,0-12.241,29.5c-1.048,3.52-1.89,6.789-2.546,9.72l-.133.6c-.156.717-.292,1.371-.407,1.957l-.074.383-.133.724a.8.8,0,1,1-1.574-.265l.046-.257q.056-.311.138-.731l.132-.665q.193-.95.448-2.1l.145-.641c.641-2.8,1.446-5.883,2.429-9.186a149.022,149.022,0,0,1,12.376-29.818A112.884,112.884,0,0,1,536.83,582.126Z" transform="translate(812.491 348.846)" fill="#253368"/>
    <path id="Path_61" data-name="Path 61" d="M546.1,208.111a.8.8,0,0,1,.059,1.089l-.035.039-.1.107-.2.214-.114.127c-.344.383-.743.844-1.194,1.383-1.293,1.546-2.735,3.407-4.289,5.583a146.912,146.912,0,0,0-13.055,22.51A194.779,194.779,0,0,0,511.6,289.207c-3.966,22.764-4.623,47.631-1.376,74.62a.8.8,0,0,1-1.585.191c-3.265-27.144-2.6-52.168,1.389-75.085a196.374,196.374,0,0,1,15.705-50.452,148.485,148.485,0,0,1,13.2-22.755l.349-.486c1.388-1.922,2.686-3.594,3.867-5.017l.147-.176q.636-.761,1.14-1.325l.09-.1q.157-.175.28-.309l.166-.178A.8.8,0,0,1,546.1,208.111Z" transform="translate(817.171 623.274)" fill="#253368"/>
    <path id="Path_62" data-name="Path 62" d="M394.438,386.308a.8.8,0,0,1,1.1.269l.08.134c.064.108.139.237.225.386l.125.219q.321.564.72,1.3l.22.406c.812,1.511,1.7,3.26,2.651,5.241l.13.271a201.644,201.644,0,0,1,9.085,22.709,261.907,261.907,0,0,1,13.2,81.748.8.8,0,0,1-1.6.01,260.31,260.31,0,0,0-13.115-81.251,200.691,200.691,0,0,0-8.845-22.177l-.167-.352c-1.031-2.159-1.99-4.044-2.855-5.646l-.26-.479q-.375-.684-.673-1.2l-.094-.163-.192-.326A.8.8,0,0,1,394.438,386.308Z" transform="translate(899.739 492.412)" fill="#253368"/>
    <path id="Path_63" data-name="Path 63" d="M417.363,782.7h-69a6.8,6.8,0,0,1-6.781-6.781V725.582a6.8,6.8,0,0,1,6.781-6.781h69a6.8,6.8,0,0,1,6.781,6.781v50.336A6.8,6.8,0,0,1,417.363,782.7Z" transform="translate(938.247 248.301)" fill="#155263" fill-rule="evenodd"/>
  </g>
</svg>
