<svg xmlns="http://www.w3.org/2000/svg" width="931" height="931" viewBox="0 0 931 931">
  <g id="Group_26" data-name="Group 26" transform="translate(-40 -75)">
    <circle id="Ellipse_3" data-name="Ellipse 3" cx="465.5" cy="465.5" r="465.5" transform="translate(40 75)" fill="#ffc93c"/>
    <g id="Group_1" data-name="Group 1" transform="translate(442.726 704.567)">
      <path id="Path_48" data-name="Path 48" d="M517.115,66.4c31.85-15.065,50.832,24.445,34.814,46.443-19.547,26.845-29.56,57.734-35.136,67.04-4.7,7.851-17.588,26.991-33.1,18.169-14.279-8.119-6.5-39.984-6.5-39.984S477.824,84.987,517.115,66.4Z" transform="translate(-176.199)" fill="#5b8c00" fill-rule="evenodd"/>
      <path id="Path_49" data-name="Path 49" d="M245.118,431.276c-10.828-14.608-14.781-35.572-2.7-40.948,11.587-5.154,30.782,7.536,39.672,31.959s14.02,41.982,5.323,45.036C273.15,472.332,259.42,450.57,245.118,431.276Z" transform="translate(-0.001 -239.357)" fill="#5b8c00" fill-rule="evenodd"/>
      <path id="Path_50" data-name="Path 50" d="M581.845,488.831c-12.247,14.352-29.919,43.222-40.991,33.111-6.71-6.128,2.26-35.148,26.815-50.938C588.556,457.573,594.092,474.479,581.845,488.831Z" transform="translate(-222.894 -295.803)" fill="#7cb305" fill-rule="evenodd"/>
      <path id="Path_51" data-name="Path 51" d="M241.76,168.821a18.364,18.364,0,0,1,15.862-2.137c7.461,2.39,18.782,9.5,29.987,29.927,14.629,26.663,22.245,55.893,20.739,74.409a14.077,14.077,0,0,1-24.247,8.5c-3.832-4.055-7.888-10.3-11.855-19.787-15.967-38.157-30.9-62.068-32.676-64.469C234.821,188.857,231.424,175.775,241.76,168.821Z" transform="translate(0 -75.387)" fill="#7cb305" fill-rule="evenodd"/>
      <path id="Path_52" data-name="Path 52" d="M281.807,225.761a3.423,3.423,0,1,1-3.7-3.125A3.423,3.423,0,0,1,281.807,225.761Z" transform="translate(-29.337 -117.108)" fill="#fff" fill-rule="evenodd"/>
      <path id="Path_53" data-name="Path 53" d="M391.086,280.692a3.423,3.423,0,1,1-3.7-3.125A3.423,3.423,0,0,1,391.086,280.692Z" transform="translate(-109.54 -157.422)" fill="#fff" fill-rule="evenodd"/>
      <path id="Path_54" data-name="Path 54" d="M370.034,425.69a3.92,3.92,0,1,1-4.234-3.579A3.92,3.92,0,0,1,370.034,425.69Z" transform="translate(-93.362 -263.507)" fill="#fff" fill-rule="evenodd"/>
      <path id="Path_55" data-name="Path 55" d="M696.691,201.736a5.544,5.544,0,1,1-5.544-5.544A5.544,5.544,0,0,1,696.691,201.736Z" transform="translate(-330.711 -97.708)" fill="#fff" fill-rule="evenodd"/>
      <path id="Path_56" data-name="Path 56" d="M528.951,265.365a5.544,5.544,0,1,1-5.544-5.544A5.544,5.544,0,0,1,528.951,265.365Z" transform="translate(-207.602 -144.407)" fill="#fff" fill-rule="evenodd"/>
      <path id="Path_57" data-name="Path 57" d="M601.078,415.705a2.317,2.317,0,1,1-2.317-2.317A2.317,2.317,0,0,1,601.078,415.705Z" transform="translate(-265.275 -257.115)" fill="#fff" fill-rule="evenodd"/>
      <path id="Path_58" data-name="Path 58" d="M657.72,524.033a3.423,3.423,0,1,1-3.423-3.423A3.423,3.423,0,0,1,657.72,524.033Z" transform="translate(-305.222 -335.808)" fill="#fff" fill-rule="evenodd"/>
      <path id="Path_59" data-name="Path 59" d="M375.417,561.4a.8.8,0,0,1,1.129.027l.146.158.111.123q.3.337.695.8c.742.885,1.567,1.942,2.454,3.17a84.586,84.586,0,0,1,7.41,12.523c6.724,13.829,10.756,30.255,10.756,49.217a.8.8,0,1,1-1.6,0c0-18.712-3.974-34.9-10.6-48.519a83.009,83.009,0,0,0-7.269-12.287c-.813-1.127-1.571-2.1-2.256-2.927l-.127-.153q-.291-.348-.529-.617l-.2-.224c-.074-.082-.126-.138-.154-.167A.8.8,0,0,1,375.417,561.4Z" transform="translate(-102.875 -365.586)" fill="#253368"/>
      <path id="Path_60" data-name="Path 60" d="M536.83,582.126a.8.8,0,1,1,1.279.955,111.276,111.276,0,0,0-8.057,12.518,147.449,147.449,0,0,0-12.241,29.5c-1.048,3.52-1.89,6.789-2.546,9.72l-.133.6c-.156.717-.292,1.371-.407,1.957l-.074.383-.133.724a.8.8,0,1,1-1.574-.265l.046-.257q.056-.311.138-.731l.132-.665q.193-.95.448-2.1l.145-.641c.641-2.8,1.446-5.883,2.429-9.186a149.022,149.022,0,0,1,12.376-29.818A112.884,112.884,0,0,1,536.83,582.126Z" transform="translate(-203.983 -380.721)" fill="#253368"/>
      <path id="Path_61" data-name="Path 61" d="M546.1,208.111a.8.8,0,0,1,.059,1.089l-.035.039-.1.107-.2.214-.114.127c-.344.383-.743.844-1.194,1.383-1.293,1.546-2.735,3.407-4.289,5.583a146.912,146.912,0,0,0-13.055,22.51A194.779,194.779,0,0,0,511.6,289.207c-3.966,22.764-4.623,47.631-1.376,74.62a.8.8,0,0,1-1.585.191c-3.265-27.144-2.6-52.168,1.389-75.085a196.374,196.374,0,0,1,15.705-50.452,148.485,148.485,0,0,1,13.2-22.755l.349-.486c1.388-1.922,2.686-3.594,3.867-5.017l.147-.176q.636-.761,1.14-1.325l.09-.1q.157-.175.28-.309l.166-.178A.8.8,0,0,1,546.1,208.111Z" transform="translate(-199.302 -106.293)" fill="#253368"/>
      <path id="Path_62" data-name="Path 62" d="M394.438,386.308a.8.8,0,0,1,1.1.269l.08.134c.064.108.139.237.225.386l.125.219q.321.564.72,1.3l.22.406c.812,1.511,1.7,3.26,2.651,5.241l.13.271a201.644,201.644,0,0,1,9.085,22.709,261.907,261.907,0,0,1,13.2,81.748.8.8,0,0,1-1.6.01,260.31,260.31,0,0,0-13.115-81.251,200.691,200.691,0,0,0-8.845-22.177l-.167-.352c-1.031-2.159-1.99-4.044-2.855-5.646l-.26-.479q-.375-.684-.673-1.2l-.094-.163-.192-.326A.8.8,0,0,1,394.438,386.308Z" transform="translate(-116.734 -237.155)" fill="#253368"/>
      <path id="Path_63" data-name="Path 63" d="M417.363,782.7h-69a6.8,6.8,0,0,1-6.781-6.781V725.582a6.8,6.8,0,0,1,6.781-6.781h69a6.8,6.8,0,0,1,6.781,6.781v50.336A6.8,6.8,0,0,1,417.363,782.7Z" transform="translate(-78.226 -481.266)" fill="#253368" fill-rule="evenodd"/>
    </g>
    <path id="Path_139" data-name="Path 139" d="M391.452,655.321H463.28V640.64H391.452Z" transform="translate(-195.835 262.811)" fill="#ff9a3c" fill-rule="evenodd"/>
    <path id="Path_140" data-name="Path 140" d="M569.182,146.82l19.235,237.016h16.516L585.7,146.82Z" transform="translate(-319.609 606.717)" fill="#ff6f3c" fill-rule="evenodd"/>
    <path id="Path_141" data-name="Path 141" d="M351.794,146.82,332.559,383.836h16.516L368.31,146.82Z" transform="translate(-154.821 606.717)" fill="#ff6f3c" fill-rule="evenodd"/>
    <path id="Path_142" data-name="Path 142" d="M337.428,126.855a15.427,15.427,0,1,1,0-30.855h84.65a15.427,15.427,0,1,1,0,30.855Z" transform="translate(-147.467 642.109)" fill="#a3b5d6" fill-rule="evenodd"/>
    <g id="Group_5" data-name="Group 5" transform="translate(0 6.956)">
      <path id="Path_143" data-name="Path 143" d="M460.832,155.28H57V122.911A12.74,12.74,0,0,1,69.762,110.2H448.069a12.739,12.739,0,0,1,12.763,12.715Z" transform="translate(363.42 139.569)" fill="#253368" fill-rule="evenodd"/>
      <path id="Path_144" data-name="Path 144" d="M446.619,518.036H71.213c-7.849,0-14.213-5.685-14.213-12.7V203.006H460.832V505.339C460.832,512.351,454.469,518.036,446.619,518.036Z" transform="translate(363.42 87.855)" fill="#e4ebf7" fill-rule="evenodd"/>
      <path id="Path_145" data-name="Path 145" d="M103.105,147.538a7.96,7.96,0,1,1-7.961-7.98A7.97,7.97,0,0,1,103.105,147.538Z" transform="translate(346.601 123.208)" fill="#ff7946" fill-rule="evenodd"/>
      <path id="Path_146" data-name="Path 146" d="M170.24,147.538a7.96,7.96,0,1,1-7.96-7.98A7.97,7.97,0,0,1,170.24,147.538Z" transform="translate(309.192 123.208)" fill="#faad14" fill-rule="evenodd"/>
      <path id="Path_147" data-name="Path 147" d="M237.376,147.538a7.96,7.96,0,1,1-7.96-7.98A7.97,7.97,0,0,1,237.376,147.538Z" transform="translate(271.785 123.208)" fill="#7cb305" fill-rule="evenodd"/>
      <path id="Path_148" data-name="Path 148" d="M468.146,344.014H120.925V385.64H468.146Z" transform="translate(327.801 9.285)" fill="#fff"/>
      <path id="Path_149" data-name="Path 149" d="M468.146,455.112H120.925v41.626H468.146Z" transform="translate(327.801 -52.619)" fill="#ffc93c"/>
      <path id="Path_150" data-name="Path 150" d="M468.146,566.21H120.925v41.625H468.146Z" transform="translate(327.801 -114.523)" fill="#fff"/>
      <path id="Path_151" data-name="Path 151" d="M468.146,677.307H120.925v41.626H468.146Z" transform="translate(327.801 -176.426)" fill="#fff"/>
      <path id="Path_152" data-name="Path 152" d="M171.876,247.872H124.7a3.774,3.774,0,0,0-3.774,3.774v16.1a3.774,3.774,0,0,0,3.774,3.774h47.177a3.774,3.774,0,0,0,3.774-3.774v-16.1A3.774,3.774,0,0,0,171.876,247.872Z" transform="translate(327.801 62.856)" fill="#ccd7ee"/>
      <path id="Path_153" data-name="Path 153" d="M634.575,247.872H606.269a3.774,3.774,0,0,0-3.774,3.774v16.1a3.774,3.774,0,0,0,3.774,3.774h28.306a3.774,3.774,0,0,0,3.774-3.774v-16.1A3.774,3.774,0,0,0,634.575,247.872Z" transform="translate(59.469 62.856)" fill="#ccd7ee"/>
      <path id="Path_154" data-name="Path 154" d="M863.338,811.906H851.072a5.661,5.661,0,0,0-5.661,5.661V829.9a5.661,5.661,0,0,0,5.661,5.661h12.266A5.661,5.661,0,0,0,869,829.9V817.567A5.661,5.661,0,0,0,863.338,811.906Z" transform="translate(-75.884 -251.425)" fill="#ccd7ee"/>
      <path id="Path_155" data-name="Path 155" d="M788.759,811.906H776.493a5.661,5.661,0,0,0-5.661,5.661V829.9a5.661,5.661,0,0,0,5.661,5.661h12.266a5.661,5.661,0,0,0,5.661-5.661V817.567A5.661,5.661,0,0,0,788.759,811.906Z" transform="translate(-34.328 -251.425)" fill="#ccd7ee"/>
      <path id="Path_156" data-name="Path 156" d="M714.179,811.906H701.913a5.661,5.661,0,0,0-5.661,5.661V829.9a5.661,5.661,0,0,0,5.661,5.661h12.266a5.661,5.661,0,0,0,5.661-5.661V817.567A5.661,5.661,0,0,0,714.179,811.906Z" transform="translate(7.228 -251.425)" fill="#ffc93c"/>
      <path id="Path_157" data-name="Path 157" d="M402.91,247.872H280.251a3.774,3.774,0,0,0-3.774,3.774v16.1a3.774,3.774,0,0,0,3.774,3.774H402.91a3.774,3.774,0,0,0,3.774-3.774v-16.1A3.774,3.774,0,0,0,402.91,247.872Z" transform="translate(241.127 62.856)" fill="#ccd7ee"/>
    </g>
    <g id="Group_6" data-name="Group 6">
      <path id="Path_84" data-name="Path 84" d="M303.119,542.833a.656.656,0,0,0-.125,1.3l.106.011,57.8.826a.657.657,0,0,0,.125-1.3l-.106-.01Z" transform="translate(-76.043 98.998)" fill="#a3b5d6"/>
      <path id="Path_85" data-name="Path 85" d="M126.976,708.4c-.126-.385,27.571,96.232,28.968,103.308,3.814,19.31,2.117,22.4,13.433,25.495,2.9.795,6.593-1.471,11.7,2.409,13.981,10.627,32.147,14.624,32.805,6.811,0-7.2-31.335-23.974-36.845-37.764-5.726-14.327-9.4-133.341-21.268-139.764S114.553,626.5,126.976,708.4Z" transform="translate(279.976 117.847)" fill="#ffc999" fill-rule="evenodd"/>
      <path id="Path_86" data-name="Path 86" d="M119.784,817.725a55.716,55.716,0,0,1-5.784-23.1s10.256,6.237,19.547,13.447c10.73,8.327,12.959,8.422,12.959,8.422,11.7,1.27,12.953-5.529,12.953-5.529a96.382,96.382,0,0,0,20.493,12.677c11.612,5.477-27.539,14.71-34.884,5.8a58.69,58.69,0,0,0-15.6-13.337l-.142,15.7-3.778.629Z" transform="translate(323.41 141.118)" fill="#253368" fill-rule="evenodd"/>
      <path id="Path_87" data-name="Path 87" d="M199.48,620.4l33.167,169.194-59.8,11.883s-21.113-90.85-33.705-168.6c0,0-9.325-40.086,22.624-46.024S199.48,620.4,199.48,620.4Z" transform="translate(244.99 106.259)" fill="#a3b5d6" fill-rule="evenodd"/>
      <path id="Path_88" data-name="Path 88" d="M318.815,585.228c-63.01-7.813-109.539-8.48-124.11-4.826,0,0-30.249,6.063-24.575,29.347,6.925,28.414,39.451,28.889,39.451,28.889L314.927,646.9c8.376.744,35.941,3.934,37.531-28.441C353.959,587.926,320.188,585.4,318.815,585.228Z" transform="translate(88.302 104.925)" fill="#a3b5d6" fill-rule="evenodd"/>
      <path id="Path_89" data-name="Path 89" d="M314.877,554.15S234.288,525.837,222.89,522.6c-28.817-8.2-32.426,26.912-14.147,31.594,11.017,2.822,33.328,6.057,52.76,9.118,27.387,4.312,47.526,6.622,47.526,6.622Z" transform="translate(93.126 95.406)" fill="#ffc999" fill-rule="evenodd"/>
      <path id="Path_90" data-name="Path 90" d="M359.1,360.111s44.347,8.575,43.946,34.1c-.207,13.131-13.391,27.041-7.3,31.218,23.8,16.313-2.743,22.048,12.274,35.044,22.335,19.332,7.482,50.909-16.623,48.149-24.968-2.86-13.979,32.971-56.807,21.67-24.135-6.37-31.073-11.917-48.08-20.972s-26.372-54.38-4.559-75.945c13.566-13.655,26.134-11.945,34.094-35.06s15.4-37.214,26.9-34.988C347.311,357.418,359.1,360.111,359.1,360.111Z" transform="translate(-94.683 68.329)" fill="#253368" fill-rule="evenodd"/>
      <path id="Path_91" data-name="Path 91" d="M298.67,408.025a.505.505,0,0,1,.97-.014c1.324,4.278,4.46,15.807-.045,16.242C294.517,424.742,297.443,412.483,298.67,408.025Z" transform="translate(-9.717 76.385)" fill="#fff" fill-rule="evenodd"/>
      <path id="Path_92" data-name="Path 92" d="M311.056,441.425c2.023-17.545,3.943-31.881,3.943-31.881L342.03,424.8l-1.594,21.38a14.1,14.1,0,0,1-16.563,11.674C315.6,456.282,310.092,449.793,311.056,441.425Z" transform="translate(-66.423 76.701)" fill="#f4b784" fill-rule="evenodd"/>
      <path id="Path_93" data-name="Path 93" d="M312.92,384.24s3-7.929,8.435-4.084c3.888,2.747,2.852.49,3.727-1.646,3.252-7.941,4.339,11.612,16.935,15.707.21,9.958.756,41.788-20.759,43.027-8.371.483-19.092-5.477-22.781-16.823-2.406-7.4-.4-14.841,2.532-16.326C310.678,399.21,310.5,394.168,312.92,384.24Z" transform="translate(-50.657 71.195)" fill="#ffc999" fill-rule="evenodd"/>
      <path id="Path_94" data-name="Path 94" d="M314.156,390.441a.671.671,0,0,0-.817.294l-.047.1-1.972,5.256-.04.165-.048.593c-.007.109-.015.23-.022.363a66.968,66.968,0,0,0,.651,12.684l.105.734-.454.033c-.972.079-1.881.2-2.722.35l-.5.095c-.484.1-.92.2-1.305.306l-.28.078c-.275.081-.468.145-.573.184a.672.672,0,1,0,.475,1.257l.224-.076.251-.077c.414-.12.906-.243,1.473-.356a27.565,27.565,0,0,1,4.21-.494.672.672,0,0,0,.634-.774,68.859,68.859,0,0,1-.877-13.4l.046-.814.036-.462,1.94-5.175a.673.673,0,0,0-.294-.818Z" transform="translate(-32.863 73.498)" fill="#dd936f"/>
      <path id="Path_95" data-name="Path 95" d="M309.481,411.189a.876.876,0,0,0-.515,1.674q.5.152,1.012.289a36.33,36.33,0,0,0,6.505,1.062c1.337.1,2.522.135,3.484.125l.6-.014a.875.875,0,0,0-.077-1.749l-.21.006c-.963.023-2.219,0-3.658-.113a34.589,34.589,0,0,1-6.191-1.01C310.107,411.374,309.79,411.284,309.481,411.189Z" transform="translate(-42.76 76.969)" fill="#c44343"/>
      <path id="Path_96" data-name="Path 96" d="M306.8,391.487c-2.333-1.584-5.6-2.039-9.848-.747a.875.875,0,0,0,.509,1.675c3.75-1.139,6.468-.761,8.357.521a4.254,4.254,0,0,1,1.163,1.082.875.875,0,1,0,1.479-.937A5.9,5.9,0,0,0,306.8,391.487Z" transform="translate(-15.934 73.429)" fill="#253368"/>
      <path id="Path_97" data-name="Path 97" d="M318.552,388.65a16.152,16.152,0,0,0-3.62.26.875.875,0,1,0,.347,1.716,14.55,14.55,0,0,1,3.224-.226,30.677,30.677,0,0,1,4.911.583c.5.1.977.2,1.421.3l.733.18c.179.047.311.083.392.106a.875.875,0,1,0,.482-1.683l-.433-.117-.322-.082c-.588-.145-1.241-.291-1.939-.426A32.243,32.243,0,0,0,318.552,388.65Z" transform="translate(-55.302 73.204)" fill="#253368"/>
      <path id="Path_98" data-name="Path 98" d="M312.99,416.935a.671.671,0,0,0-.149,1.33l.109.013,2.339.071a.671.671,0,0,0,.149-1.33l-.109-.013Z" transform="translate(-41.952 77.937)" fill="#dd936f"/>
      <path id="Path_99" data-name="Path 99" d="M338.25,405.4c-1.646-8.438,6.421-7.787,6.421-7.787a69.734,69.734,0,0,0,2.078,15.909C338.659,413.132,338.25,405.4,338.25,405.4Z" transform="translate(-102.752 74.702)" fill="#ffc999" fill-rule="evenodd"/>
      <path id="Path_100" data-name="Path 100" d="M340.647,409.446a.505.505,0,0,1,.97-.015c1.321,4.277,4.458,15.809-.046,16.242C336.494,426.163,339.419,413.9,340.647,409.446Z" transform="translate(-100.691 76.622)" fill="#fff" fill-rule="evenodd"/>
      <path id="Path_101" data-name="Path 101" d="M303.826,396.864c-1.875-.209-3.474,1.567-3.725,3.832a.876.876,0,1,0,1.74.193c.155-1.405,1.025-2.371,1.792-2.284s1.4,1.215,1.248,2.622a.876.876,0,0,0,1.74.194C306.874,399.152,305.7,397.07,303.826,396.864Z" transform="translate(-18.382 74.577)" fill="#253368"/>
      <path id="Path_102" data-name="Path 102" d="M320.918,395.3c-2.1-.31-4.018,1.471-4.374,3.88a.876.876,0,0,0,1.732.256c.225-1.527,1.335-2.559,2.386-2.4s1.814,1.463,1.59,2.991a.875.875,0,0,0,1.732.254C324.338,397.863,323.019,395.606,320.918,395.3Z" transform="translate(-54.957 74.311)" fill="#253368"/>
      <path id="Path_103" data-name="Path 103" d="M311.791,552.318s-1.823-58.985-3.1-70.349c-3.078-27.447-18.479-33.565-30.124-22.384-14.038,13.476,2.68,95.938,2.68,95.938s2.126,10.991,15.319,11.2C312.162,566.96,311.791,552.318,311.791,552.318Z" transform="translate(8.161 84.187)" fill="#ffc999" fill-rule="evenodd"/>
      <path id="Path_104" data-name="Path 104" d="M307.909,510.448c-.377-5.918,4.16-58.835-20.632-59.038-19.282-.158-14.722,25.049-9.194,67.364Z" transform="translate(11.548 83.704)" fill="#ffc93c" fill-rule="evenodd"/>
      <path id="Path_105" data-name="Path 105" d="M312.72,562.866c13.787,3.364,51.934,1.757,56.03,0s1.861-14.281,1.861-14.281c24.979-63.759,22.62-84.946,20.431-89.686-2.957-6.408-29.454-6.044-30.456-11.046-.491-2.468-.319-10.982-.319-10.982l-34.151-1.9s-1.9,9.376-3.711,12.384c-3.51,5.852-25.085,1.315-33.961,13.148-15.86,21.148,5.8,57.491,17.722,83.929C306.165,544.435,305.426,556.861,312.72,562.866Z" transform="translate(-83.908 80.955)" fill="#ffc93c" fill-rule="evenodd"/>
      <path id="Path_106" data-name="Path 106" d="M356.162,632.449l29.13-30.459s-6.282-33.963-22.422-48.759L305.3,551.213s-24.7,17.2-22.018,58.885l44.164,22.59Z" transform="translate(-77.15 100.4)" fill="#e4ebf7" fill-rule="evenodd"/>
      <path id="Path_107" data-name="Path 107" d="M302.285,553.128l58.916,1.347-1.464-9.018-55.5-1.675Z" transform="translate(-75.483 99.157)" fill="#e4ebf7" fill-rule="evenodd"/>
      <path id="Path_108" data-name="Path 108" d="M317.957,552.959a.656.656,0,0,0-.577.727c.666,5.755,1.171,12.01,1.526,18.689.8,14.986.81,30.933.333,46.114l-.09,2.671c-.077,2.206-.161,4.219-.244,6.013l-.156,3.081a.657.657,0,0,0,1.311.077l.069-1.288.12-2.493c.062-1.39.124-2.9.183-4.522l.03-.821c.566-16.008.6-32.989-.245-48.9-.356-6.7-.863-12.986-1.531-18.77a.657.657,0,0,0-.621-.58Z" transform="translate(-52.769 100.691)" fill="#a3b5d6"/>
      <path id="Path_109" data-name="Path 109" d="M303.263,551.627a.656.656,0,0,0-.13,1.3l.106.01,57.741,1.009a.656.656,0,0,0,.128-1.3l-.106-.01Z" transform="translate(-76.29 100.469)" fill="#a3b5d6"/>
      <path id="Path_110" data-name="Path 110" d="M298.211,702.358c.095-.424-27.137,103.663-29.711,110.942-7.028,19.864-10.277,21.782-1.548,30.811,2.235,2.311,6.875,2.241,9.46,8.606,7.076,17.415,21.62,31.012,26.491,24.177,3.931-6.628-15.769-39.179-13.315-54.887,2.547-16.316,64.122-127.919,56.7-140.31S331.478,620.156,298.211,702.358Z" transform="translate(-13.8 117.897)" fill="#ffc999" fill-rule="evenodd"/>
      <path id="Path_111" data-name="Path 111" d="M294.014,821.736a59.668,59.668,0,0,1,7.283-24.429s6.041,11.34,10.661,23.054c5.336,13.523,7.336,14.827,7.336,14.827,10.081,7.557,14.948,1.979,14.948,1.979s3.348,10.148,11.949,22.86c7.7,11.381-33.388-1.485-35.289-13.7a62.9,62.9,0,0,0-7.084-20.8l-8.7,14.384-3.823-1.485Z" transform="translate(-48.603 141.567)" fill="#253368" fill-rule="evenodd"/>
      <path id="Path_112" data-name="Path 112" d="M336.645,632.384,285.912,809.841l-62.8-17.782s24.093-96.893,49.932-177.151c0,0,10.621-42.755,43.97-32.866S336.645,632.384,336.645,632.384Z" transform="translate(38.699 105.308)" fill="#e4ebf7" fill-rule="evenodd"/>
      <path id="Path_113" data-name="Path 113" d="M359.315,580.508c-69.888-10.278-91.8-10.148-108.1-6.454,0,0-33.8,5.982-28.074,32.024,6.987,31.779,43.151,33.125,43.151,33.125l87.14,9.8c9.3,1.041,42.462,3.23,42.462-30.685C395.9,584.309,360.837,580.733,359.315,580.508Z" transform="translate(-17.037 103.837)" fill="#e4ebf7" fill-rule="evenodd"/>
      <path id="Path_114" data-name="Path 114" d="M377.748,541.378s11.236-50.668,10.8-62.509c-1.04-28.6-21.022-31.485-31.223-18.735-7.887,9.859-12.817,84.3-12.817,84.3s3,12.735,16.151,14.049C376.2,560.036,377.748,541.378,377.748,541.378Z" transform="translate(-152.135 83.955)" fill="#ffc999" fill-rule="evenodd"/>
      <path id="Path_115" data-name="Path 115" d="M362.253,450.652c-13.822,2.854-19.124,16.5-20.377,55.215l36.482,5.915c.082-5.93,23.991-65.4-19.012-60.571" transform="translate(-145.555 83.577)" fill="#ffc93c" fill-rule="evenodd"/>
      <path id="Path_116" data-name="Path 116" d="M398.785,556.576s-87.2-35.3-98.763-37.908c-23.453-5.284-31.657,22.394-12.015,30.6,25.283,10.56,106.4,26.281,106.4,26.281Z" transform="translate(-83.533 94.844)" fill="#ffc999" fill-rule="evenodd"/>
      <path id="Path_117" data-name="Path 117" d="M344.882,456.9a.657.657,0,0,0-.526,1.2c2.909,1.272,5.267,4.719,7.071,9.678a51.286,51.286,0,0,1,2,7.229c.14.691.26,1.342.361,1.944l.124.779.069.482-3.606,32.456a.659.659,0,0,0,.476.705l.1.021a.659.659,0,0,0,.705-.475l.021-.105,3.614-32.536v-.153l-.083-.588-.054-.349c-.117-.738-.264-1.558-.444-2.442a52.534,52.534,0,0,0-2.052-7.417C350.745,462.068,348.205,458.356,344.882,456.9Z" transform="translate(-118.225 84.614)" fill="#155263"/>
      <path id="Path_118" data-name="Path 118" d="M314.509,447.1a.657.657,0,0,0-.151,1.3l.106.012,25.334.865a.657.657,0,0,0,.152-1.3l-.106-.012Z" transform="translate(-68.237 82.982)" fill="#155263"/>
      <path id="Path_119" data-name="Path 119" d="M290.059,465.328a.657.657,0,0,0-.789.318l-.042.1-1.972,5.915a.667.667,0,0,0-.023.324l.029.106,5.1,14.082.095.2c.041.092.09.208.145.348a16.4,16.4,0,0,1,.56,1.68c2.133,7.655.665,17.073-7.147,27.391a.657.657,0,0,0,1.047.793c8.071-10.658,9.6-20.5,7.366-28.537a17.875,17.875,0,0,0-.606-1.814l-.145-.349c-.042-.1-.075-.166-.1-.207l-.016-.03-4.989-13.794,1.9-5.7a.656.656,0,0,0-.316-.789Z" transform="translate(9.504 86.027)" fill="#155263"/>
      <path id="Path_120" data-name="Path 120" d="M249.961,568.731a.657.657,0,0,0-.265,1.282l.105.021,99.8,12.256a.657.657,0,0,0,.265-1.282l-.105-.021Z" transform="translate(-2.685 103.329)" fill="#a3b5d6"/>
      <path id="Path_121" data-name="Path 121" d="M278.525,604.368l-102.082-16.16,101.166-30.617,84.079,21.784Z" transform="translate(70.923 101.467)" fill="#ccd7ee" fill-rule="evenodd"/>
      <path id="Path_122" data-name="Path 122" d="M266.786,596.457l-74.14-11.736,71.727-22.376L327.187,578.3Z" transform="translate(86.511 102.262)" fill="#4e5c93" fill-rule="evenodd"/>
      <path id="Path_123" data-name="Path 123" d="M245.989,589.084l-.083-5.233L350.09,599.5l-1.765,5.589Z" transform="translate(1.439 105.859)" fill="#253368" fill-rule="evenodd"/>
      <path id="Path_124" data-name="Path 124" d="M293.507,566.378a.437.437,0,0,0-.476-.281l-.085.021L234.6,587.509a.438.438,0,0,0,.216.844l.085-.022,58.347-21.391A.44.44,0,0,0,293.507,566.378Z" transform="translate(71.528 102.889)" fill="#ccd7ee"/>
      <path id="Path_125" data-name="Path 125" d="M307.034,563.723a.436.436,0,0,0-.47-.291l-.086.021L241.238,586.14a.438.438,0,0,0,.2.847l.085-.021,65.24-22.686A.436.436,0,0,0,307.034,563.723Z" transform="translate(50.262 102.443)" fill="#ccd7ee"/>
      <path id="Path_126" data-name="Path 126" d="M283.4,570.921a.437.437,0,0,0-.479-.275l-.086.023-49,18.741a.438.438,0,0,0,.228.84l.085-.023,49-18.741A.436.436,0,0,0,283.4,570.921Z" transform="translate(82.515 103.649)" fill="#ccd7ee"/>
      <path id="Path_127" data-name="Path 127" d="M271.9,572.07a.438.438,0,0,0-.48-.275l-.085.023-49,18.738a.437.437,0,0,0,.226.84l.086-.023,49-18.738A.438.438,0,0,0,271.9,572.07Z" transform="translate(107.44 103.842)" fill="#ccd7ee"/>
      <path id="Path_128" data-name="Path 128" d="M261.278,573.879a.438.438,0,0,0-.48-.277l-.086.023-49,18.739a.438.438,0,0,0,.228.842l.085-.023,49-18.738A.437.437,0,0,0,261.278,573.879Z" transform="translate(130.461 104.144)" fill="#ccd7ee"/>
      <path id="Path_129" data-name="Path 129" d="M243.327,578.761a.438.438,0,0,0-.194.85l.086.02,63.445,7.828a.438.438,0,0,0,.194-.85l-.088-.019Z" transform="translate(47.955 105.007)" fill="#ccd7ee"/>
      <path id="Path_130" data-name="Path 130" d="M231.272,574.51a.438.438,0,0,0-.194.85l.086.02,63.444,7.828a.437.437,0,0,0,.194-.849l-.086-.02Z" transform="translate(74.084 104.296)" fill="#ccd7ee"/>
      <path id="Path_131" data-name="Path 131" d="M216.326,571.675a.438.438,0,0,0-.194.85l.086.02,63.445,7.828a.437.437,0,0,0,.194-.849l-.088-.02Z" transform="translate(106.474 103.822)" fill="#ccd7ee"/>
      <path id="Path_132" data-name="Path 132" d="M206.218,564.152a.438.438,0,0,0-.194.85l.086.02,63.445,7.828a.437.437,0,0,0,.194-.849l-.086-.02Z" transform="translate(128.381 102.564)" fill="#ccd7ee"/>
      <path id="Path_133" data-name="Path 133" d="M148.738,624.606l4.587.4,78.708-24.729,31.81-133.054-84.775,16.924Z" transform="translate(201.108 86.349)" fill="#253368" fill-rule="evenodd"/>
      <path id="Path_134" data-name="Path 134" d="M144.5,625.09l83-26.039a2.26,2.26,0,0,0,1.522-1.63l30.715-127.869a2.262,2.262,0,0,0-2.646-2.745l-80.414,16.167a2.26,2.26,0,0,0-1.765,1.738Z" transform="translate(210.098 86.272)" fill="#4e5c93" fill-rule="evenodd"/>
      <path id="Path_135" data-name="Path 135" d="M247.345,566.68c2.5,9.339,23.3,6.168,23.3,6.168l10.2,8.3c1.614,1.114,2.308.027,3.187.228a2.467,2.467,0,0,0,2.937-1.951c.9-.2,2.078.723,2.945-1.446a2.1,2.1,0,0,0,2.262-1.728c.215-.739-3.04-10.74-4.983-16.594a7.184,7.184,0,0,0-5.756-4.84l-24.895-3.748S243.98,554.113,247.345,566.68Z" transform="translate(58.331 100.376)" fill="#ffc999" fill-rule="evenodd"/>
      <path id="Path_136" data-name="Path 136" d="M254.292,564.062a.671.671,0,0,0-.625,1.184l.1.051,7.324,3.126,7.326,10.085a.671.671,0,0,0,.833.211l.1-.062a.672.672,0,0,0,.211-.835l-.063-.1-7.434-10.234a.667.667,0,0,0-.173-.166l-.106-.057Z" transform="translate(73.203 102.54)" fill="#dd936f"/>
      <path id="Path_137" data-name="Path 137" d="M251.82,561.429a.671.671,0,0,0-.749,1.109l.091.061,6.725,3.787,5.967,10.44a.673.673,0,0,0,.818.3l.1-.046a.671.671,0,0,0,.3-.817l-.047-.1-6.059-10.6a.669.669,0,0,0-.154-.183l-.1-.069Z" transform="translate(80.686 102.094)" fill="#dd936f"/>
      <path id="Path_138" data-name="Path 138" d="M250.205,559a.672.672,0,0,0-.921.97l.088.084,4.527,3.58,5.447,11.208a.671.671,0,0,0,.8.349l.1-.04a.672.672,0,0,0,.35-.795l-.04-.1-5.515-11.346a.67.67,0,0,0-.113-.166l-.074-.068Z" transform="translate(87.16 101.678)" fill="#dd936f"/>
    </g>
  </g>
</svg>
