<svg xmlns="http://www.w3.org/2000/svg" width="183.023" height="491.154" viewBox="0 0 183.023 491.154">
  <g id="Group_9" data-name="Group 9" transform="translate(-259.489 -681)">
    <path id="Path_179" data-name="Path 179" d="M215.392,621.682a19.153,19.153,0,0,0,18.751-18.769L236.2,499.154a23.367,23.367,0,0,0-23.848-23.825h0a23.367,23.367,0,0,0-22.837,24.795l6.361,103.582A19.154,19.154,0,0,0,215.392,621.682Z" transform="translate(108.826 431.792)" fill="#4e5c93" fill-rule="evenodd"/>
    <path id="Path_180" data-name="Path 180" d="M196.356,766.55l1.06-129.139a18.963,18.963,0,1,1,37.876,1.522l-9.32,129.044A40.5,40.5,0,0,1,196.356,766.55Z" transform="translate(107.397 402.061)" fill="#4e5c93" fill-rule="evenodd"/>
    <path id="Path_182" data-name="Path 182" d="M282.93,617.289A19.153,19.153,0,0,0,299,596.179l-11.851-103.1a23.367,23.367,0,1,0-46.136,7.209l20.171,101.8A19.151,19.151,0,0,0,282.93,617.289Z" transform="translate(98.224 432.404)" fill="#4e5c93" fill-rule="evenodd"/>
    <path id="Path_183" data-name="Path 183" d="M247.546,754.143l15.042-128.264a18.964,18.964,0,1,1,37.489,5.616L276.833,758.77A40.5,40.5,0,0,1,247.546,754.143Z" transform="translate(96.775 404.028)" fill="#4e5c93" fill-rule="evenodd"/>
    <path id="Path_184" data-name="Path 184" d="M364.1,251.335s.517,19.992-7.1,23.611c-6.895,3.279-12.268-4.954-12.268-4.954a68.743,68.743,0,0,1-5.177-15.369c-1.12-5.543-4.82-15.76-2.137-17.1,3.5-1.742,5.577,9.323,8.361,9.9,5.64,1.166,4.2-16.587,5.516-19.59C353.865,221.966,365.283,228.519,364.1,251.335Z" transform="translate(78.322 483.571)" fill="#997c79" fill-rule="evenodd"/>
    <path id="Path_185" data-name="Path 185" d="M359.219,226.029l.14,0a.595.595,0,0,1,.015,1.186h-.081c-.365-.021-.57.26-.661.93a4.765,4.765,0,0,0-.03.874l.021.282.014.124.006.1-.033,1.188c-.017.7-.031,1.369-.043,2.2l-.057,4.436c-.072,4.34-.235,5.933-.808,7.379a.595.595,0,0,1-1.106-.438l.1-.27c.445-1.287.574-3,.635-7.342l.054-4.227c.011-.712.024-1.321.041-1.961l.026-.957-.02-.2a6.251,6.251,0,0,1,.021-1.354C357.612,226.833,358.165,226.037,359.219,226.029Z" transform="translate(74.154 483.524)" fill="#7c5b4d"/>
    <path id="Path_186" data-name="Path 186" d="M362.3,229.476c.689-.758,1.637-.431,2.655.722a.594.594,0,1,1-.891.787c-.616-.7-.829-.77-.884-.709a3.288,3.288,0,0,0-.338,1.646c-.015.391-.009.805.011,1.22l.025.415c.017.232.033.407.032.43l.036.172.034.177c.049.273.1.6.145.968a41.969,41.969,0,0,1-1.155,14.573.594.594,0,1,1-1.156-.273,40.813,40.813,0,0,0,1.131-14.154l-.053-.4c-.017-.124-.036-.24-.055-.349l-.052-.289-.044-.224-.031-.321c-.006-.069-.011-.146-.017-.229a16.3,16.3,0,0,1-.039-1.764A3.822,3.822,0,0,1,362.3,229.476Z" transform="translate(73.274 482.894)" fill="#7c5b4d"/>
    <path id="Path_187" data-name="Path 187" d="M365.673,236.443a.594.594,0,0,1,.66.985l-.067.045a2.263,2.263,0,0,0-.773,1.729,9.2,9.2,0,0,0-.014,1.863l.041.379a36.1,36.1,0,0,1-.884,11.917c-.227.951-.471,1.809-.716,2.561l-.124.372-.193.533c-.006.017-.012.03-.016.042a.6.6,0,0,1-.23.279l-.155.107-.059.042c-.181.13-.383.285-.6.464a14.811,14.811,0,0,0-1.837,1.793c-2.509,2.916-3.435,6.254-1.9,9.948a.594.594,0,0,1-1.1.456c-1.728-4.164-.676-7.953,2.1-11.18a16.066,16.066,0,0,1,1.986-1.936c.178-.146.348-.278.506-.4l.249-.181.128-.357.119-.353c.235-.722.471-1.549.691-2.469a34.923,34.923,0,0,0,.859-11.5l-.026-.213c-.006-.06-.013-.129-.02-.206a10.36,10.36,0,0,1,.019-2.109A3.257,3.257,0,0,1,365.673,236.443Z" transform="translate(74.09 481.379)" fill="#7c5b4d"/>
    <path id="Path_188" data-name="Path 188" d="M347.591,252.579a.593.593,0,0,1,.831-.125l.243.189.292.243c.1.086.208.18.318.278a17.874,17.874,0,0,1,1.842,1.916c2.118,2.568,3.176,5.343,2.551,8.184a.594.594,0,1,1-1.161-.256c.532-2.417-.4-4.858-2.307-7.172a16.667,16.667,0,0,0-1.718-1.787q-.231-.207-.433-.374l-.333-.265A.593.593,0,0,1,347.591,252.579Z" transform="translate(76.039 478.065)" fill="#7c5b4d"/>
    <path id="Path_189" data-name="Path 189" d="M325.811,395.172a16,16,0,0,0,6.279-21.337l-33.712-64.358c-4.831-9.221-15.137-13.376-24.195-8.241,0,0-15.553,11.248-7.825,26.4l37.919,61.973A16,16,0,0,0,325.811,395.172Z" transform="translate(93.318 468.38)" fill="#ffc93c" fill-rule="evenodd"/>
    <path id="Path_190" data-name="Path 190" d="M356.91,283.222,333.476,279,312.39,373.155a15.975,15.975,0,1,0,31.416,5.661Z" transform="translate(83.4 472.532)" fill="#ffc93c" fill-rule="evenodd"/>
    <path id="Path_191" data-name="Path 191" d="M339.367,294.967l.08.01,20.422,3.68a.594.594,0,0,1-.13,1.178l-.081-.009-20.422-3.68a.595.595,0,0,1,.131-1.179Z" transform="translate(77.85 469.219)" fill="#155263"/>
    <path id="Path_192" data-name="Path 192" d="M339.851,278.124l23.1,4.113a.594.594,0,0,1-.128,1.179l-.08-.009-23.1-4.113a.594.594,0,0,1,.128-1.179Z" transform="translate(77.766 472.716)" fill="#155263"/>
    <path id="Path_193" data-name="Path 193" d="M214.543,273.394l1.957-26.6,28.741-.643.64,26.972a14.978,14.978,0,0,1-9.019,14.941,19.7,19.7,0,0,1-1.908.674C225.048,291.67,214.07,283.715,214.543,273.394Z" transform="translate(103.626 479.348)" fill="#997c79" fill-rule="evenodd"/>
    <path id="Path_194" data-name="Path 194" d="M205.994,223c3.062,20.636,17.378,29.935,31.088,30.623,16.345.82,20-13.235,19.093-33.6-.925-20.683-9.8-27.736-25.17-28.22C214.984,191.3,202.894,202.094,205.994,223Z" transform="translate(105.498 490.631)" fill="#997c79" fill-rule="evenodd"/>
    <path id="Path_195" data-name="Path 195" d="M216.8,225.666c-.476-1.612-.934-4.311-3.516-5.391-3.554-1.488-6.7,2.532-6.205,6.854.6,5.238,5.22,8.421,7.836,8.447a39.777,39.777,0,0,1-1.166,7.61,43.617,43.617,0,0,1-8.447-14.321c-4.963-13.828-1.794-33.156,13.743-37.541,24.274-6.114,32.353,10.908,32.353,10.908l-29.172.628.736,10.05s-5.359.281-4.308,12.174Z" transform="translate(105.991 491)" fill="#604346" fill-rule="evenodd"/>
    <path id="Path_196" data-name="Path 196" d="M235.457,221.538l9.582.234a.594.594,0,0,1,.052,1.185l-.08,0-9.488-.232-2.905.888a.594.594,0,0,1-.713-.319l-.029-.076a.6.6,0,0,1,.319-.713l.076-.029,3-.917a.605.605,0,0,1,.124-.024Z" transform="translate(100.032 484.456)" fill="#604346"/>
    <path id="Path_197" data-name="Path 197" d="M229.706,253.081c3.459-4.861,2.5-8.421,15.73-9.233,8.575-.525,9.347,2.438,11.8,7.986-1.927,8.516-9.046,14.847-18.15,13.116-20.6-3.913-20.214-20.993-20.214-20.993s2.733.711,3.611,2.169C224.911,250.161,228.16,251.5,229.706,253.081Z" transform="translate(102.725 479.839)" fill="#7c5b4d" fill-rule="evenodd"/>
    <path id="Path_198" data-name="Path 198" d="M255.214,247.37s-6.017.46-12.795.806c0,0,.975,3.286,6.521,3.341C253.289,251.561,255.214,247.37,255.214,247.37Z" transform="translate(97.839 479.095)" fill="#fff" fill-rule="evenodd"/>
    <path id="Path_199" data-name="Path 199" d="M255.013,246.622l-2.556.185-2.631.177c-1.2.078-2.434.155-3.687.229-1.322.078-2.627.149-3.905.215a.594.594,0,0,0-.54.762,4.442,4.442,0,0,0,1.384,1.95,8.542,8.542,0,0,0,5.7,1.816,7.018,7.018,0,0,0,5.215-2.252,9.256,9.256,0,0,0,1.2-1.524,6.535,6.535,0,0,0,.4-.717A.594.594,0,0,0,255.013,246.622Zm-1.056,1.269-.14.2a8.017,8.017,0,0,1-.674.787,5.843,5.843,0,0,1-4.353,1.894,7.383,7.383,0,0,1-4.93-1.523l-.176-.162a4.119,4.119,0,0,1-.44-.5l-.012-.018,1.658-.09,1.319-.076c1.571-.093,3.111-.189,4.589-.288Z" transform="translate(97.994 479.251)" fill="#604346"/>
    <path id="Path_200" data-name="Path 200" d="M254.705,221.691a.594.594,0,0,1,1.162.239l-.017.079-.889,3.2,2.287,10.9a2,2,0,0,1-1.82,2.371l-.069,0-7.46,1.244a.6.6,0,0,1-.666-.41l-.018-.079a.594.594,0,0,1,.41-.665l.078-.019L255.2,237.3l.093-.008a.812.812,0,0,0,.8-.863l-.012-.091-2.315-11.029a.6.6,0,0,1-.009-.188l.018-.094Z" transform="translate(96.845 484.514)" fill="#604346"/>
    <path id="Path_201" data-name="Path 201" d="M251.632,256.666a.446.446,0,0,1,.083.884l-.072.007-3.6.045a.446.446,0,0,1-.083-.885l.072-.006Z" transform="translate(96.765 477.167)" fill="#604346"/>
    <path id="Path_202" data-name="Path 202" d="M265.611,220.313a.595.595,0,0,1,.193,1.171l-.08.013-7.869.754a.594.594,0,0,1-.193-1.171l.079-.013Z" transform="translate(94.771 484.711)" fill="#604346"/>
    <path id="Path_203" data-name="Path 203" d="M230.25,264.667a.447.447,0,0,1,.609-.165,28.128,28.128,0,0,0,16.5,3.849l.38-.039c.142-.017.248-.032.315-.043a.446.446,0,1,1,.147.88l-.243.035c-.136.017-.31.036-.518.055a29.017,29.017,0,0,1-17.024-3.964A.446.446,0,0,1,230.25,264.667Z" transform="translate(100.376 475.552)" fill="#604346"/>
    <path id="Path_204" data-name="Path 204" d="M213.063,230.952a3.3,3.3,0,0,1,2,.329c1.216.631,1.978,2.018,2.106,4.281a.447.447,0,0,1-.382.467c-1.156.166-1.711.62-1.785,1.235a2.185,2.185,0,0,0,.857,1.765.446.446,0,0,1-.578.679,3.045,3.045,0,0,1-1.164-2.552,2.336,2.336,0,0,1,2-1.905l.129-.03-.006-.065c-.166-1.612-.7-2.564-1.483-3.024l-.108-.059a2.433,2.433,0,0,0-1.463-.238l-.11.019a.446.446,0,0,1-.214-.866l.117-.023Z" transform="translate(104.042 482.51)" fill="#604346"/>
    <path id="Path_205" data-name="Path 205" d="M262.875,227.652c1.579.016,2.728,1.779,2.707,3.854a.594.594,0,0,1-1.189-.012c.014-1.5-.734-2.645-1.53-2.653s-1.568,1.126-1.582,2.621a.594.594,0,1,1-1.189-.012C260.114,229.376,261.3,227.636,262.875,227.652Z" transform="translate(94.171 483.187)" fill="#604346"/>
    <path id="Path_206" data-name="Path 206" d="M240.9,228.053c1.535.016,2.649,1.726,2.628,3.734a.594.594,0,0,1-1.189-.013c.015-1.429-.7-2.525-1.452-2.533s-1.488,1.074-1.5,2.5a.594.594,0,1,1-1.189-.012C238.212,229.725,239.36,228.037,240.9,228.053Z" transform="translate(98.716 483.104)" fill="#604346"/>
    <path id="Path_207" data-name="Path 207" d="M265.687,392.274s11.4-60.967,3.748-93.519c-8.667-4.536-15.613-6.712-29.519-10.072-3.129-.756-9.752,8.985-13.559,8.883-5.627-.151-13.549-11.4-18.769-10.133-15.387,3.746-28.689,8.038-28.689,8.038l-.091,47.812c5.338,24.572,15.251,48.343,15.251,48.343s-10.834,15.792,14.089,18.764c17.36,2.071,41.61,3.787,52.467-2.763A12.545,12.545,0,0,0,265.687,392.274Z" transform="translate(111.039 470.803)" fill="#ffc93c" fill-rule="evenodd"/>
    <path id="Path_208" data-name="Path 208" d="M251.113,280.037l6.75,8.435-8.251,15.946-10.164-15.576Z" transform="translate(98.455 472.317)" fill="#ffc93c" fill-rule="evenodd"/>
    <path id="Path_209" data-name="Path 209" d="M233,288.385,212.58,277.831,208.367,288.1l16.1,12.909Z" transform="translate(104.905 472.774)" fill="#ffc93c" fill-rule="evenodd"/>
    <path id="Path_210" data-name="Path 210" d="M245.857,303.062l-8.1-11.1-7.077,9.864,4.074,8.9,9.372-.061Z" transform="translate(100.276 469.843)" fill="#253368" fill-rule="evenodd"/>
    <path id="Path_211" data-name="Path 211" d="M207.765,288.708a.594.594,0,0,1,.774-.048l.067.058,14.466,14.8,9.277-13.157a.6.6,0,0,1,.906-.078l.055.063,10.771,14.331,5.734-13.77a.6.6,0,0,1,.7-.346l.077.026a.594.594,0,0,1,.346.7l-.025.077-6.133,14.729a.594.594,0,0,1-.968.193l-.055-.063L232.85,291.713l-9.217,13.074a.6.6,0,0,1-.848.128l-.063-.055-14.966-15.311A.6.6,0,0,1,207.765,288.708Z" transform="translate(105.067 470.552)" fill="#155263"/>
    <path id="Path_212" data-name="Path 212" d="M291.27,339.847a.6.6,0,0,1,.626.56,260.734,260.734,0,0,1-1.828,49.112l-.2,1.434c-.4,2.824-.818,5.388-1.239,7.671l-.1.565q-.208,1.1-.391,1.991l-.23,1.082-.048.213.07.243c.087.316.174.677.254,1.075a15.962,15.962,0,0,1-.118,7.387,10.851,10.851,0,0,1-6.141,7.143.594.594,0,1,1-.508-1.075,9.667,9.667,0,0,0,5.5-6.385,14.823,14.823,0,0,0,.1-6.834c-.056-.278-.116-.536-.176-.769l-.111-.407c-.022-.076-.04-.132-.051-.166a.593.593,0,0,1-.015-.324l.126-.567.181-.856c.12-.586.25-1.243.386-1.971.522-2.775,1.045-5.991,1.532-9.609a259.5,259.5,0,0,0,1.82-48.887A.594.594,0,0,1,291.27,339.847Z" transform="translate(89.817 459.906)" fill="#155263"/>
    <path id="Path_213" data-name="Path 213" d="M198.551,446.986s57.867-.647,65.823-.808c4.144-.085,12.892,30.824,11.835,42.647-2.739,5.279-22.634,11.943-34.461,17.119a13.56,13.56,0,0,1-8.517.768c-5.858,1.43-43.314-14.086-43.314-14.086S187.367,466.566,198.551,446.986Z" transform="translate(108.785 437.841)" fill="#4e5c93" fill-rule="evenodd"/>
    <path id="Path_214" data-name="Path 214" d="M267.913,436.893l.166,8.031s-9.3,3.541-31.706,4.675c-21.558,1.093-35.916-4.61-35.916-4.61l.357-8.469S228.259,445.75,267.913,436.893Z" transform="translate(106.546 439.844)" fill-rule="evenodd"/>
    <path id="Path_215" data-name="Path 215" d="M254.557,448.593l.054-5.835a2.751,2.751,0,0,0-2.876-2.845,117.834,117.834,0,0,1-15.247.235,2.738,2.738,0,0,0-2.87,2.867l.124,5.962a2.786,2.786,0,0,0,2.347,2.739,51.13,51.13,0,0,0,16.23-.37A2.8,2.8,0,0,0,254.557,448.593Z" transform="translate(99.665 439.142)" fill="#e4ebf7" fill-rule="evenodd"/>
    <path id="Path_216" data-name="Path 216" d="M252.746,448.316l.049-4.129a2.036,2.036,0,0,0-2.215-2.009,98.913,98.913,0,0,1-11.763.188A2.04,2.04,0,0,0,236.6,444.4l.087,4.218a2.024,2.024,0,0,0,1.808,1.934,42.975,42.975,0,0,0,12.521-.283A2.042,2.042,0,0,0,252.746,448.316Z" transform="translate(99.047 438.672)" fill-rule="evenodd"/>
    <path id="Path_217" data-name="Path 217" d="M265.313,508.525a.4.4,0,0,1,.621.5,67.288,67.288,0,0,1-5.808,6.252,104.256,104.256,0,0,1-8.11,6.968l-.812.625q-.6.454-1.148.862l-.879.643-.691.491L246.3,563.887a.4.4,0,0,1-.349.374l-.072,0a.4.4,0,0,1-.374-.349l0-.071,2.2-39.214a.4.4,0,0,1,.173-.307l.681-.481.32-.231c.8-.58,1.692-1.248,2.652-1.994a103.35,103.35,0,0,0,8.047-6.914A66.609,66.609,0,0,0,265.313,508.525Z" transform="translate(97.199 424.934)" fill="#253368"/>
    <path id="Path_218" data-name="Path 218" d="M230.575,483.235l3.067-.172a4.008,4.008,0,0,1,4.229,3.778l2.911,51.734A4.01,4.01,0,0,1,237,542.8l-3.067.172a4.009,4.009,0,0,1-4.228-3.778L226.8,487.464A4.01,4.01,0,0,1,230.575,483.235Z" transform="translate(101.082 430.188)" fill="#ff7a46" fill-rule="evenodd"/>
    <path id="Path_219" data-name="Path 219" d="M144.285,487.125l68.642-3.863a4.011,4.011,0,0,1,4.228,3.779l2.912,51.734A4.008,4.008,0,0,1,216.289,543l-68.642,3.863a4.009,4.009,0,0,1-4.229-3.778l-2.911-51.734A4.009,4.009,0,0,1,144.285,487.125Z" transform="translate(118.988 430.147)" fill="#faad14" fill-rule="evenodd"/>
    <path id="Path_220" data-name="Path 220" d="M220.7,530.73a.251.251,0,0,1,.086.491l-.057.01-75.146,4.228a.251.251,0,0,1-.085-.491l.056-.01Z" transform="translate(117.989 420.295)" fill="#ff7a46"/>
    <path id="Path_221" data-name="Path 221" d="M165.157,547.669s-6.219-16.825-.335-22.862c5.329-5.467,13.224.387,13.224.387a68.836,68.836,0,0,1,10.191,12.619c2.973,4.808,9.99,13.107,7.937,15.29-2.675,2.847-8.465-6.807-11.276-6.382-5.695.863,1.814,17.014,1.626,20.285C186.157,573.4,172.461,567.908,165.157,547.669Z" transform="translate(114.466 422.008)" fill="#997c79" fill-rule="evenodd"/>
    <path id="Path_222" data-name="Path 222" d="M181.794,558.755a.594.594,0,0,1,.651.533l.03.255.046.349c.017.124.036.258.058.4.124.808.291,1.711.508,2.683a39.35,39.35,0,0,0,2.733,8.14,27.868,27.868,0,0,0,2.2,3.873.594.594,0,1,1-.981.67,29.156,29.156,0,0,1-2.29-4.038,40.584,40.584,0,0,1-2.816-8.387c-.223-1-.4-1.929-.523-2.763l-.06-.414-.081-.649A.594.594,0,0,1,181.794,558.755Z" transform="translate(110.53 414.48)" fill="#7c5b4d"/>
    <path id="Path_223" data-name="Path 223" d="M175.431,558.107a.6.6,0,0,1,.7.465,50.587,50.587,0,0,0,2.529,8.618,39.725,39.725,0,0,0,2.505,5.243c.247.429.479.808.693,1.136l.125.191c.145.219.247.363.3.431a.594.594,0,1,1-.951.713l-.133-.186q-.084-.121-.2-.3l-.269-.415c-.185-.292-.383-.618-.589-.976a40.818,40.818,0,0,1-2.58-5.4,51.8,51.8,0,0,1-2.59-8.82A.6.6,0,0,1,175.431,558.107Z" transform="translate(111.839 414.616)" fill="#7c5b4d"/>
    <path id="Path_224" data-name="Path 224" d="M169.978,555.739a.593.593,0,0,1,.667.51l.018.119q.029.18.1.513l.029.139c.138.655.333,1.427.594,2.312a56.931,56.931,0,0,0,3.462,8.718.594.594,0,0,1-1.069.52,58.209,58.209,0,0,1-3.534-8.9c-.269-.914-.472-1.717-.616-2.4l-.083-.414c-.038-.2-.062-.349-.075-.445A.594.594,0,0,1,169.978,555.739Z" transform="translate(112.978 415.107)" fill="#7c5b4d"/>
    <path id="Path_225" data-name="Path 225" d="M155.674,401.5a16,16,0,0,1-12-18.73l14.374-71.217a18.415,18.415,0,1,1,35.819,8.479l-19.079,70.1A16,16,0,0,1,155.674,401.5Z" transform="translate(118.395 468.843)" fill="#ffc93c" fill-rule="evenodd"/>
    <path id="Path_226" data-name="Path 226" d="M179.6,502.144l-23.717,2.13-12.661-95.653a15.975,15.975,0,1,1,31.794-2.855Z" transform="translate(118.451 449.384)" fill="#ffc93c" fill-rule="evenodd"/>
    <path id="Path_227" data-name="Path 227" d="M182.748,530.617a.594.594,0,0,1,.186,1.171l-.08.013-23.716,2.13a.594.594,0,0,1-.186-1.171l.08-.013Z" transform="translate(115.255 420.319)" fill="#597ef7"/>
    <path id="Path_228" data-name="Path 228" d="M179.417,515.158a.594.594,0,0,1,.186,1.171l-.08.013L158.854,518.2a.594.594,0,0,1-.185-1.171l.079-.013Z" transform="translate(115.314 423.527)" fill="#597ef7"/>
    <path id="Path_229" data-name="Path 229" d="M167.6,525.424a1.851,1.851,0,1,1-2.009-1.678A1.851,1.851,0,0,1,167.6,525.424Z" transform="translate(114.131 421.746)" fill="#fff" fill-rule="evenodd"/>
    <path id="Path_230" data-name="Path 230" d="M193.518,353.543a.595.595,0,0,1,1.171.189l-.013.079-10.447,45.077a.594.594,0,0,1-1.17-.189l.013-.079Z" transform="translate(110.157 457.159)" fill="#155263"/>
    <path id="Path_231" data-name="Path 231" d="M176.633,303.217a.594.594,0,0,1,.743-.391l.223.075q.139.05.328.124l.132.052c.525.211,1.107.477,1.733.8a23.337,23.337,0,0,1,5.228,3.74,24.073,24.073,0,0,1,7.211,14.128.594.594,0,0,1-1.174.185,22.887,22.887,0,0,0-6.853-13.449,22.177,22.177,0,0,0-4.962-3.55,17.866,17.866,0,0,0-1.625-.754l-.226-.089c-.17-.065-.294-.108-.365-.13A.594.594,0,0,1,176.633,303.217Z" transform="translate(111.496 467.593)" fill="#155263"/>
    <path id="Path_232" data-name="Path 232" d="M323.567,344.1a.6.6,0,0,1,.479.617l-.01.081L319.5,368a.594.594,0,0,1-1.177-.148l.01-.08,4.54-23.194a.594.594,0,0,1,.617-.479Z" transform="translate(82.089 459.024)" fill="#155263"/>
    <path id="Path_233" data-name="Path 233" d="M234.584,315.618l9.372-.061s12.788,46.315,10.933,69.755c-3.531,7.6-11.49,17.479-11.49,17.479L229.881,382.8S232.869,326.339,234.584,315.618Z" transform="translate(100.441 464.946)" fill="#253368" fill-rule="evenodd"/>
  </g>
</svg>
