<svg xmlns="http://www.w3.org/2000/svg" width="52.5" height="53.878" viewBox="0 0 52.5 53.878">
  <path id="google" d="M27.635,24.515v7.363h17.6c-.539,4.131-1.915,7.155-4.012,9.278-2.575,2.575-6.584,5.388-13.589,5.388A19.316,19.316,0,0,1,8.328,26.968,19.316,19.316,0,0,1,27.635,7.393,18.716,18.716,0,0,1,40.9,12.661l5.179-5.179A25.432,25.432,0,0,0,27.635,0C12.789,0,.307,12.093.307,26.939S12.789,53.878,27.635,53.878c8.021,0,14.069-2.633,18.8-7.543,4.849-4.849,6.376-11.7,6.376-17.212a23.645,23.645,0,0,0-.388-4.609Z" transform="translate(-0.307)" fill="#155263"/>
</svg>
